M48
; DRILL file {KiCad 8.0.2} date 2024-11-04T15:45:24+0300
; FORMAT={-:-/ absolute / inch / decimal}
; #@! TF.CreationDate,2024-11-04T15:45:24+03:00
; #@! TF.GenerationSoftware,Kicad,Pcbnew,8.0.2
; #@! TF.FileFunction,Plated,1,2,PTH
FMAT,2
INCH
; #@! TA.AperFunction,Plated,PTH,ViaDrill
T1C0.0157
; #@! TA.AperFunction,Plated,PTH,ViaDrill
T2C0.0236
; #@! TA.AperFunction,Plated,PTH,ComponentDrill
T3C0.0295
; #@! TA.AperFunction,Plated,PTH,ComponentDrill
T4C0.0315
; #@! TA.AperFunction,Plated,PTH,ComponentDrill
T5C0.0394
; #@! TA.AperFunction,Plated,PTH,ComponentDrill
T6C0.0400
; #@! TA.AperFunction,Plated,PTH,ComponentDrill
T7C0.1181
%
G90
G05
T1
X4.0654Y-2.9937
X4.0701Y-3.0713
X4.3059Y-3.0937
X4.3543Y-3.2346
X4.4413Y-3.2321
X4.448Y-2.9457
X4.5254Y-3.3261
X4.63Y-3.3268
X4.6996Y-3.0114
X4.7047Y-2.9626
X5.0004Y-3.0791
X5.0872Y-3.3246
X5.2248Y-3.1941
X5.2622Y-2.6429
X5.3386Y-2.9979
X5.3386Y-3.1479
X5.4094Y-3.3256
X5.5307Y-3.1008
X5.5661Y-3.7756
X5.5969Y-3.3598
X5.5997Y-3.4092
X5.6753Y-3.4156
X5.7114Y-3.5756
X5.7134Y-3.372
X5.8016Y-3.0004
X5.9549Y-3.8742
X6.0945Y-3.8169
X6.1228Y-3.8906
X6.15Y-3.5626
X6.7323Y-3.3565
X6.7901Y-3.3802
X6.8421Y-3.937
T2
X4.4236Y-3.1551
X4.4244Y-3.037
X4.5087Y-2.6433
X4.7483Y-3.2502
X4.8587Y-3.0768
X5.2232Y-3.1496
X5.2256Y-3.0366
X5.3079Y-3.8106
X5.4697Y-3.0815
X5.7165Y-3.6752
X5.772Y-3.5675
X5.8563Y-3.4102
X5.9598Y-3.6429
X5.9618Y-3.7585
X6.2945Y-3.674
X6.3768Y-3.7008
X6.5315Y-3.7598
X6.5346Y-3.6417
X7.0291Y-3.1319
X7.1823Y-3.1894
T3
X3.9173Y-2.098
X3.9173Y-4.398
X3.9437Y-4.3346
X3.9437Y-4.4614
X3.9441Y-2.0346
X3.9441Y-2.1614
X4.0059Y-2.0094
X4.0059Y-2.1866
X4.0059Y-4.3094
X4.0059Y-4.4866
X4.0677Y-4.3346
X4.0677Y-4.4614
X4.0681Y-2.0346
X4.0681Y-2.1614
X4.0945Y-2.098
X4.0945Y-4.398
X7.2327Y-4.4094
X7.2328Y-2.1094
X7.2591Y-4.3461
X7.2591Y-4.4728
X7.2591Y-2.046
X7.2591Y-2.1728
X7.3213Y-4.3209
X7.3213Y-4.498
X7.3213Y-2.0208
X7.3213Y-2.198
X7.3831Y-4.3461
X7.3831Y-4.4728
X7.3832Y-2.046
X7.3832Y-2.1728
X7.4098Y-4.4094
X7.4099Y-2.1094
T4
X4.8465Y-4.5866
X4.9465Y-4.5866
X5.0465Y-4.5866
X5.6181Y-2.3106
X5.6181Y-2.6106
X5.7165Y-2.7634
X5.7165Y-3.0634
X5.7181Y-2.3106
X5.7181Y-2.6106
X5.8165Y-2.7634
X5.8165Y-3.0634
X5.8181Y-2.3106
X5.8181Y-2.6106
X5.9165Y-2.7634
X5.9165Y-3.0634
X5.9181Y-2.3106
X5.9181Y-2.6106
X6.0165Y-2.7634
X6.0165Y-3.0634
T5
X4.6463Y-2.1094
X4.6463Y-4.4094
X4.7463Y-2.1094
X4.7463Y-4.4094
X4.8463Y-2.1094
X4.8463Y-4.4094
X4.9463Y-2.1094
X4.9463Y-4.4094
X5.0463Y-2.1094
X5.0463Y-4.4094
X5.1463Y-2.1094
X5.1463Y-4.4094
X5.2463Y-2.1094
X5.2463Y-4.4094
X5.3463Y-2.1094
X5.3463Y-4.4094
X5.4463Y-2.1094
X5.4463Y-4.4094
X5.5463Y-2.1094
X5.5463Y-4.4094
X5.6463Y-2.1094
X5.6463Y-4.4094
X5.7463Y-2.1094
X5.7463Y-4.4094
X5.8463Y-2.1094
X5.8463Y-4.4094
X5.9463Y-2.1094
X5.9463Y-4.4094
X6.0463Y-2.1094
X6.0463Y-4.4094
X6.1463Y-2.1094
X6.1463Y-4.4094
X6.2463Y-2.1094
X6.2463Y-4.4094
X6.3463Y-2.1094
X6.3463Y-4.4094
X6.4463Y-2.1094
X6.4463Y-4.4094
X6.5463Y-2.1094
X6.5463Y-4.4094
X6.6463Y-2.1094
X6.6463Y-4.4094
X6.7463Y-2.1094
X6.7463Y-4.4094
X6.8463Y-2.1094
X6.8463Y-4.4094
X6.9463Y-2.1094
X6.9463Y-4.4094
X7.0463Y-2.1094
X7.0463Y-4.4094
X7.3622Y-3.4039
X7.3622Y-3.5039
X7.3622Y-3.7189
X7.3622Y-3.8189
X7.3622Y-4.0339
X7.3622Y-4.1339
T6
X4.0138Y-3.4502
X4.0138Y-3.6045
X4.1138Y-3.4502
X4.1138Y-3.6045
X4.2138Y-3.4502
X4.2138Y-3.6045
X4.3138Y-3.4502
X4.3138Y-3.6045
X4.4138Y-3.4502
X4.4138Y-3.6045
X4.5138Y-3.4502
X4.5138Y-3.6045
X4.6138Y-3.4502
X4.6138Y-3.6045
X4.8465Y-3.6055
X4.8496Y-3.448
X4.9465Y-3.6055
X4.9496Y-3.448
X5.0465Y-3.6055
X5.0496Y-3.448
X5.1465Y-3.6055
X5.1496Y-3.448
X5.2465Y-3.6055
X5.2496Y-3.448
X5.3465Y-3.6055
X5.3496Y-3.448
X5.4465Y-3.6055
X5.4496Y-3.448
X6.2461Y-2.3031
X6.3461Y-2.3031
X6.4461Y-2.3031
X6.5461Y-2.3031
X6.6461Y-2.3031
X6.7461Y-2.3031
T7
X4.0059Y-2.098
X4.0059Y-4.398
X7.3213Y-4.4094
X7.3213Y-2.1094
M30
