%TF.GenerationSoftware,KiCad,Pcbnew,8.0.2*%
%TF.CreationDate,2024-09-30T18:20:34+03:00*%
%TF.ProjectId,board,626f6172-642e-46b6-9963-61645f706362,rev?*%
%TF.SameCoordinates,Original*%
%TF.FileFunction,Soldermask,Bot*%
%TF.FilePolarity,Negative*%
%FSLAX46Y46*%
G04 Gerber Fmt 4.6, Leading zero omitted, Abs format (unit mm)*
G04 Created by KiCad (PCBNEW 8.0.2) date 2024-09-30 18:20:34*
%MOMM*%
%LPD*%
G01*
G04 APERTURE LIST*
%ADD10C,3.200000*%
%ADD11C,1.500000*%
%ADD12C,6.000000*%
%ADD13R,1.700000X1.700000*%
%ADD14O,1.700000X1.700000*%
%ADD15C,1.200000*%
%ADD16C,1.778000*%
%ADD17R,1.600000X1.600000*%
%ADD18O,1.600000X1.600000*%
%ADD19O,1.727200X2.032000*%
%ADD20R,1.000000X1.000000*%
G04 APERTURE END LIST*
D10*
%TO.C,H1*%
X124405142Y-86040000D03*
%TD*%
D11*
%TO.C,J4*%
X183712184Y-53577958D03*
X184382184Y-51967958D03*
X184382184Y-55187958D03*
X185962184Y-51327958D03*
D12*
X185962184Y-53577958D03*
D11*
X185962184Y-55827958D03*
X187532184Y-51967958D03*
X187532184Y-55187958D03*
X188212184Y-53577958D03*
%TD*%
D13*
%TO.C,J6*%
X187000000Y-93000000D03*
D14*
X187000000Y-95540000D03*
%TD*%
D15*
%TO.C,J5*%
X183500000Y-65750000D03*
X177500000Y-65750000D03*
%TD*%
D11*
%TO.C,J3*%
X183710142Y-112000000D03*
X184380142Y-110390000D03*
X184380142Y-113610000D03*
X185960142Y-109750000D03*
D12*
X185960142Y-112000000D03*
D11*
X185960142Y-114250000D03*
X187530142Y-110390000D03*
X187530142Y-113610000D03*
X188210142Y-112000000D03*
%TD*%
D16*
%TO.C,U3*%
X136840000Y-75000000D03*
X139380000Y-75000000D03*
X141920000Y-75000000D03*
X144460000Y-75000000D03*
X147000000Y-75000000D03*
X149540000Y-75000000D03*
X152080000Y-75000000D03*
%TD*%
D11*
%TO.C,J5*%
X99500142Y-111710000D03*
X100170142Y-110100000D03*
X100170142Y-113320000D03*
X101750142Y-109460000D03*
D12*
X101750142Y-111710000D03*
D11*
X101750142Y-113960000D03*
X103320142Y-110100000D03*
X103320142Y-113320000D03*
X104000142Y-111710000D03*
%TD*%
D13*
%TO.C,J8*%
X187000000Y-84000000D03*
D14*
X187000000Y-86540000D03*
%TD*%
D13*
%TO.C,J7*%
X187000000Y-102000000D03*
D14*
X187000000Y-104540000D03*
%TD*%
D17*
%TO.C,U13*%
X150380000Y-91620000D03*
D18*
X152920000Y-91620000D03*
X155460000Y-91620000D03*
X158000000Y-91620000D03*
X158000000Y-84000000D03*
X155460000Y-84000000D03*
X152920000Y-84000000D03*
X150380000Y-84000000D03*
%TD*%
D16*
%TO.C,U2*%
X116380000Y-67080000D03*
X118920000Y-67080000D03*
X121460000Y-67080000D03*
X124000000Y-67080000D03*
X126540000Y-67080000D03*
X129080000Y-67080000D03*
X131620000Y-67080000D03*
%TD*%
D19*
%TO.C,U12*%
X169350000Y-62031000D03*
X166810000Y-62031000D03*
X164270000Y-62031000D03*
X161730000Y-62031000D03*
X159190000Y-62031000D03*
X156650000Y-62031000D03*
%TD*%
D17*
%TO.C,U11*%
X113200000Y-101810000D03*
D18*
X115740000Y-101810000D03*
X118280000Y-101810000D03*
X120820000Y-101810000D03*
X120820000Y-94190000D03*
X118280000Y-94190000D03*
X115740000Y-94190000D03*
X113200000Y-94190000D03*
%TD*%
D20*
%TO.C,C18*%
X154000000Y-101850000D03*
X154000000Y-100150000D03*
%TD*%
%TO.C,C17*%
X138850000Y-82000000D03*
X137150000Y-82000000D03*
%TD*%
%TO.C,C9*%
X143150000Y-64000000D03*
X144850000Y-64000000D03*
%TD*%
%TO.C,C14*%
X152000000Y-62850000D03*
X152000000Y-61150000D03*
%TD*%
%TO.C,C7*%
X156000000Y-80850000D03*
X156000000Y-79150000D03*
%TD*%
%TO.C,C11*%
X157000000Y-100150000D03*
X157000000Y-101850000D03*
%TD*%
%TO.C,C21*%
X155850000Y-89000000D03*
X154150000Y-89000000D03*
%TD*%
D13*
%TO.C,J1*%
X178975142Y-112000000D03*
D14*
X176435142Y-112000000D03*
X173895142Y-112000000D03*
X171355142Y-112000000D03*
X168815142Y-112000000D03*
X166275142Y-112000000D03*
X163735142Y-112000000D03*
X161195142Y-112000000D03*
X158655142Y-112000000D03*
X156115142Y-112000000D03*
X153575142Y-112000000D03*
X151035142Y-112000000D03*
X148495142Y-112000000D03*
X145955142Y-112000000D03*
X143415142Y-112000000D03*
X140875142Y-112000000D03*
X138335142Y-112000000D03*
X135795142Y-112000000D03*
X133255142Y-112000000D03*
X130715142Y-112000000D03*
X128175142Y-112000000D03*
X125635142Y-112000000D03*
X123095142Y-112000000D03*
X120555142Y-112000000D03*
X118015142Y-112000000D03*
%TD*%
D20*
%TO.C,C1*%
X166150000Y-68000000D03*
X167850000Y-68000000D03*
%TD*%
%TO.C,R11*%
X139850000Y-87000000D03*
X138150000Y-87000000D03*
%TD*%
D16*
%TO.C,U5*%
X136880000Y-78920000D03*
X139420000Y-78920000D03*
X141960000Y-78920000D03*
X144500000Y-78920000D03*
X147040000Y-78920000D03*
X149580000Y-78920000D03*
X152120000Y-78920000D03*
%TD*%
D20*
%TO.C,R15*%
X147665000Y-88000000D03*
X145965000Y-88000000D03*
%TD*%
%TO.C,C16*%
X172150000Y-87000000D03*
X173850000Y-87000000D03*
%TD*%
%TO.C,C12*%
X169850000Y-87000000D03*
X168150000Y-87000000D03*
%TD*%
%TO.C,C23*%
X142000000Y-67850000D03*
X142000000Y-66150000D03*
%TD*%
D11*
%TO.C,J2*%
X104000142Y-53290000D03*
X103330142Y-54900000D03*
X103330142Y-51680000D03*
X101750142Y-55540000D03*
D12*
X101750142Y-53290000D03*
D11*
X101750142Y-51040000D03*
X100180142Y-54900000D03*
X100180142Y-51680000D03*
X99500142Y-53290000D03*
%TD*%
D20*
%TO.C,C20*%
X140850000Y-64000000D03*
X139150000Y-64000000D03*
%TD*%
%TO.C,C10*%
X151000000Y-100150000D03*
X151000000Y-101850000D03*
%TD*%
%TO.C,R13*%
X147000000Y-97850000D03*
X147000000Y-96150000D03*
%TD*%
%TO.C,C19*%
X142150000Y-86000000D03*
X143850000Y-86000000D03*
%TD*%
D13*
%TO.C,J2*%
X178975142Y-53580000D03*
D14*
X176435142Y-53580000D03*
X173895142Y-53580000D03*
X171355142Y-53580000D03*
X168815142Y-53580000D03*
X166275142Y-53580000D03*
X163735142Y-53580000D03*
X161195142Y-53580000D03*
X158655142Y-53580000D03*
X156115142Y-53580000D03*
X153575142Y-53580000D03*
X151035142Y-53580000D03*
X148495142Y-53580000D03*
X145955142Y-53580000D03*
X143415142Y-53580000D03*
X140875142Y-53580000D03*
X138335142Y-53580000D03*
X135795142Y-53580000D03*
X133255142Y-53580000D03*
X130715142Y-53580000D03*
X128175142Y-53580000D03*
X125635142Y-53580000D03*
X123095142Y-53580000D03*
X120555142Y-53580000D03*
X118015142Y-53580000D03*
%TD*%
D16*
%TO.C,U4*%
X116420000Y-70500000D03*
X118960000Y-70500000D03*
X121500000Y-70500000D03*
X124040000Y-70500000D03*
X126580000Y-70500000D03*
X129120000Y-70500000D03*
X131660000Y-70500000D03*
%TD*%
M02*
