%TF.GenerationSoftware,KiCad,Pcbnew,8.0.2*%
%TF.CreationDate,2024-11-04T15:30:26+03:00*%
%TF.ProjectId,board,626f6172-642e-46b6-9963-61645f706362,rev?*%
%TF.SameCoordinates,Original*%
%TF.FileFunction,Legend,Bot*%
%TF.FilePolarity,Positive*%
%FSLAX46Y46*%
G04 Gerber Fmt 4.6, Leading zero omitted, Abs format (unit mm)*
G04 Created by KiCad (PCBNEW 8.0.2) date 2024-11-04 15:30:26*
%MOMM*%
%LPD*%
G01*
G04 APERTURE LIST*
%ADD10C,0.150000*%
%ADD11C,0.100000*%
%ADD12C,0.120000*%
G04 APERTURE END LIST*
D10*
X144417857Y-61730997D02*
X144448809Y-61761950D01*
X144448809Y-61761950D02*
X144541667Y-61792902D01*
X144541667Y-61792902D02*
X144603571Y-61792902D01*
X144603571Y-61792902D02*
X144696428Y-61761950D01*
X144696428Y-61761950D02*
X144758333Y-61700045D01*
X144758333Y-61700045D02*
X144789286Y-61638140D01*
X144789286Y-61638140D02*
X144820238Y-61514330D01*
X144820238Y-61514330D02*
X144820238Y-61421473D01*
X144820238Y-61421473D02*
X144789286Y-61297664D01*
X144789286Y-61297664D02*
X144758333Y-61235759D01*
X144758333Y-61235759D02*
X144696428Y-61173854D01*
X144696428Y-61173854D02*
X144603571Y-61142902D01*
X144603571Y-61142902D02*
X144541667Y-61142902D01*
X144541667Y-61142902D02*
X144448809Y-61173854D01*
X144448809Y-61173854D02*
X144417857Y-61204807D01*
X144170238Y-61204807D02*
X144139286Y-61173854D01*
X144139286Y-61173854D02*
X144077381Y-61142902D01*
X144077381Y-61142902D02*
X143922619Y-61142902D01*
X143922619Y-61142902D02*
X143860714Y-61173854D01*
X143860714Y-61173854D02*
X143829762Y-61204807D01*
X143829762Y-61204807D02*
X143798809Y-61266711D01*
X143798809Y-61266711D02*
X143798809Y-61328616D01*
X143798809Y-61328616D02*
X143829762Y-61421473D01*
X143829762Y-61421473D02*
X144201190Y-61792902D01*
X144201190Y-61792902D02*
X143798809Y-61792902D01*
X143210714Y-61142902D02*
X143520238Y-61142902D01*
X143520238Y-61142902D02*
X143551190Y-61452426D01*
X143551190Y-61452426D02*
X143520238Y-61421473D01*
X143520238Y-61421473D02*
X143458333Y-61390521D01*
X143458333Y-61390521D02*
X143303571Y-61390521D01*
X143303571Y-61390521D02*
X143241666Y-61421473D01*
X143241666Y-61421473D02*
X143210714Y-61452426D01*
X143210714Y-61452426D02*
X143179761Y-61514330D01*
X143179761Y-61514330D02*
X143179761Y-61669092D01*
X143179761Y-61669092D02*
X143210714Y-61730997D01*
X143210714Y-61730997D02*
X143241666Y-61761950D01*
X143241666Y-61761950D02*
X143303571Y-61792902D01*
X143303571Y-61792902D02*
X143458333Y-61792902D01*
X143458333Y-61792902D02*
X143520238Y-61761950D01*
X143520238Y-61761950D02*
X143551190Y-61730997D01*
X148458333Y-76230997D02*
X148489285Y-76261950D01*
X148489285Y-76261950D02*
X148582143Y-76292902D01*
X148582143Y-76292902D02*
X148644047Y-76292902D01*
X148644047Y-76292902D02*
X148736904Y-76261950D01*
X148736904Y-76261950D02*
X148798809Y-76200045D01*
X148798809Y-76200045D02*
X148829762Y-76138140D01*
X148829762Y-76138140D02*
X148860714Y-76014330D01*
X148860714Y-76014330D02*
X148860714Y-75921473D01*
X148860714Y-75921473D02*
X148829762Y-75797664D01*
X148829762Y-75797664D02*
X148798809Y-75735759D01*
X148798809Y-75735759D02*
X148736904Y-75673854D01*
X148736904Y-75673854D02*
X148644047Y-75642902D01*
X148644047Y-75642902D02*
X148582143Y-75642902D01*
X148582143Y-75642902D02*
X148489285Y-75673854D01*
X148489285Y-75673854D02*
X148458333Y-75704807D01*
X148241666Y-75642902D02*
X147839285Y-75642902D01*
X147839285Y-75642902D02*
X148055952Y-75890521D01*
X148055952Y-75890521D02*
X147963095Y-75890521D01*
X147963095Y-75890521D02*
X147901190Y-75921473D01*
X147901190Y-75921473D02*
X147870238Y-75952426D01*
X147870238Y-75952426D02*
X147839285Y-76014330D01*
X147839285Y-76014330D02*
X147839285Y-76169092D01*
X147839285Y-76169092D02*
X147870238Y-76230997D01*
X147870238Y-76230997D02*
X147901190Y-76261950D01*
X147901190Y-76261950D02*
X147963095Y-76292902D01*
X147963095Y-76292902D02*
X148148809Y-76292902D01*
X148148809Y-76292902D02*
X148210714Y-76261950D01*
X148210714Y-76261950D02*
X148241666Y-76230997D01*
X144417857Y-63980997D02*
X144448809Y-64011950D01*
X144448809Y-64011950D02*
X144541667Y-64042902D01*
X144541667Y-64042902D02*
X144603571Y-64042902D01*
X144603571Y-64042902D02*
X144696428Y-64011950D01*
X144696428Y-64011950D02*
X144758333Y-63950045D01*
X144758333Y-63950045D02*
X144789286Y-63888140D01*
X144789286Y-63888140D02*
X144820238Y-63764330D01*
X144820238Y-63764330D02*
X144820238Y-63671473D01*
X144820238Y-63671473D02*
X144789286Y-63547664D01*
X144789286Y-63547664D02*
X144758333Y-63485759D01*
X144758333Y-63485759D02*
X144696428Y-63423854D01*
X144696428Y-63423854D02*
X144603571Y-63392902D01*
X144603571Y-63392902D02*
X144541667Y-63392902D01*
X144541667Y-63392902D02*
X144448809Y-63423854D01*
X144448809Y-63423854D02*
X144417857Y-63454807D01*
X144170238Y-63454807D02*
X144139286Y-63423854D01*
X144139286Y-63423854D02*
X144077381Y-63392902D01*
X144077381Y-63392902D02*
X143922619Y-63392902D01*
X143922619Y-63392902D02*
X143860714Y-63423854D01*
X143860714Y-63423854D02*
X143829762Y-63454807D01*
X143829762Y-63454807D02*
X143798809Y-63516711D01*
X143798809Y-63516711D02*
X143798809Y-63578616D01*
X143798809Y-63578616D02*
X143829762Y-63671473D01*
X143829762Y-63671473D02*
X144201190Y-64042902D01*
X144201190Y-64042902D02*
X143798809Y-64042902D01*
X143241666Y-63609569D02*
X143241666Y-64042902D01*
X143396428Y-63361950D02*
X143551190Y-63826235D01*
X143551190Y-63826235D02*
X143148809Y-63826235D01*
X109108333Y-78865997D02*
X109139285Y-78896950D01*
X109139285Y-78896950D02*
X109232143Y-78927902D01*
X109232143Y-78927902D02*
X109294047Y-78927902D01*
X109294047Y-78927902D02*
X109386904Y-78896950D01*
X109386904Y-78896950D02*
X109448809Y-78835045D01*
X109448809Y-78835045D02*
X109479762Y-78773140D01*
X109479762Y-78773140D02*
X109510714Y-78649330D01*
X109510714Y-78649330D02*
X109510714Y-78556473D01*
X109510714Y-78556473D02*
X109479762Y-78432664D01*
X109479762Y-78432664D02*
X109448809Y-78370759D01*
X109448809Y-78370759D02*
X109386904Y-78308854D01*
X109386904Y-78308854D02*
X109294047Y-78277902D01*
X109294047Y-78277902D02*
X109232143Y-78277902D01*
X109232143Y-78277902D02*
X109139285Y-78308854D01*
X109139285Y-78308854D02*
X109108333Y-78339807D01*
X108891666Y-78277902D02*
X108458333Y-78277902D01*
X108458333Y-78277902D02*
X108736904Y-78927902D01*
X130567857Y-78865997D02*
X130598809Y-78896950D01*
X130598809Y-78896950D02*
X130691667Y-78927902D01*
X130691667Y-78927902D02*
X130753571Y-78927902D01*
X130753571Y-78927902D02*
X130846428Y-78896950D01*
X130846428Y-78896950D02*
X130908333Y-78835045D01*
X130908333Y-78835045D02*
X130939286Y-78773140D01*
X130939286Y-78773140D02*
X130970238Y-78649330D01*
X130970238Y-78649330D02*
X130970238Y-78556473D01*
X130970238Y-78556473D02*
X130939286Y-78432664D01*
X130939286Y-78432664D02*
X130908333Y-78370759D01*
X130908333Y-78370759D02*
X130846428Y-78308854D01*
X130846428Y-78308854D02*
X130753571Y-78277902D01*
X130753571Y-78277902D02*
X130691667Y-78277902D01*
X130691667Y-78277902D02*
X130598809Y-78308854D01*
X130598809Y-78308854D02*
X130567857Y-78339807D01*
X129948809Y-78927902D02*
X130320238Y-78927902D01*
X130134524Y-78927902D02*
X130134524Y-78277902D01*
X130134524Y-78277902D02*
X130196428Y-78370759D01*
X130196428Y-78370759D02*
X130258333Y-78432664D01*
X130258333Y-78432664D02*
X130320238Y-78463616D01*
X129701190Y-78339807D02*
X129670238Y-78308854D01*
X129670238Y-78308854D02*
X129608333Y-78277902D01*
X129608333Y-78277902D02*
X129453571Y-78277902D01*
X129453571Y-78277902D02*
X129391666Y-78308854D01*
X129391666Y-78308854D02*
X129360714Y-78339807D01*
X129360714Y-78339807D02*
X129329761Y-78401711D01*
X129329761Y-78401711D02*
X129329761Y-78463616D01*
X129329761Y-78463616D02*
X129360714Y-78556473D01*
X129360714Y-78556473D02*
X129732142Y-78927902D01*
X129732142Y-78927902D02*
X129329761Y-78927902D01*
X146610997Y-90802142D02*
X146641950Y-90771190D01*
X146641950Y-90771190D02*
X146672902Y-90678332D01*
X146672902Y-90678332D02*
X146672902Y-90616428D01*
X146672902Y-90616428D02*
X146641950Y-90523571D01*
X146641950Y-90523571D02*
X146580045Y-90461666D01*
X146580045Y-90461666D02*
X146518140Y-90430713D01*
X146518140Y-90430713D02*
X146394330Y-90399761D01*
X146394330Y-90399761D02*
X146301473Y-90399761D01*
X146301473Y-90399761D02*
X146177664Y-90430713D01*
X146177664Y-90430713D02*
X146115759Y-90461666D01*
X146115759Y-90461666D02*
X146053854Y-90523571D01*
X146053854Y-90523571D02*
X146022902Y-90616428D01*
X146022902Y-90616428D02*
X146022902Y-90678332D01*
X146022902Y-90678332D02*
X146053854Y-90771190D01*
X146053854Y-90771190D02*
X146084807Y-90802142D01*
X146672902Y-91421190D02*
X146672902Y-91049761D01*
X146672902Y-91235475D02*
X146022902Y-91235475D01*
X146022902Y-91235475D02*
X146115759Y-91173571D01*
X146115759Y-91173571D02*
X146177664Y-91111666D01*
X146177664Y-91111666D02*
X146208616Y-91049761D01*
X146022902Y-91978333D02*
X146022902Y-91854523D01*
X146022902Y-91854523D02*
X146053854Y-91792619D01*
X146053854Y-91792619D02*
X146084807Y-91761666D01*
X146084807Y-91761666D02*
X146177664Y-91699761D01*
X146177664Y-91699761D02*
X146301473Y-91668809D01*
X146301473Y-91668809D02*
X146549092Y-91668809D01*
X146549092Y-91668809D02*
X146610997Y-91699761D01*
X146610997Y-91699761D02*
X146641950Y-91730714D01*
X146641950Y-91730714D02*
X146672902Y-91792619D01*
X146672902Y-91792619D02*
X146672902Y-91916428D01*
X146672902Y-91916428D02*
X146641950Y-91978333D01*
X146641950Y-91978333D02*
X146610997Y-92009285D01*
X146610997Y-92009285D02*
X146549092Y-92040238D01*
X146549092Y-92040238D02*
X146394330Y-92040238D01*
X146394330Y-92040238D02*
X146332426Y-92009285D01*
X146332426Y-92009285D02*
X146301473Y-91978333D01*
X146301473Y-91978333D02*
X146270521Y-91916428D01*
X146270521Y-91916428D02*
X146270521Y-91792619D01*
X146270521Y-91792619D02*
X146301473Y-91730714D01*
X146301473Y-91730714D02*
X146332426Y-91699761D01*
X146332426Y-91699761D02*
X146394330Y-91668809D01*
X115998333Y-68765997D02*
X116029285Y-68796950D01*
X116029285Y-68796950D02*
X116122143Y-68827902D01*
X116122143Y-68827902D02*
X116184047Y-68827902D01*
X116184047Y-68827902D02*
X116276904Y-68796950D01*
X116276904Y-68796950D02*
X116338809Y-68735045D01*
X116338809Y-68735045D02*
X116369762Y-68673140D01*
X116369762Y-68673140D02*
X116400714Y-68549330D01*
X116400714Y-68549330D02*
X116400714Y-68456473D01*
X116400714Y-68456473D02*
X116369762Y-68332664D01*
X116369762Y-68332664D02*
X116338809Y-68270759D01*
X116338809Y-68270759D02*
X116276904Y-68208854D01*
X116276904Y-68208854D02*
X116184047Y-68177902D01*
X116184047Y-68177902D02*
X116122143Y-68177902D01*
X116122143Y-68177902D02*
X116029285Y-68208854D01*
X116029285Y-68208854D02*
X115998333Y-68239807D01*
X115379285Y-68827902D02*
X115750714Y-68827902D01*
X115565000Y-68827902D02*
X115565000Y-68177902D01*
X115565000Y-68177902D02*
X115626904Y-68270759D01*
X115626904Y-68270759D02*
X115688809Y-68332664D01*
X115688809Y-68332664D02*
X115750714Y-68363616D01*
X122454819Y-96969095D02*
X123264342Y-96969095D01*
X123264342Y-96969095D02*
X123359580Y-97016714D01*
X123359580Y-97016714D02*
X123407200Y-97064333D01*
X123407200Y-97064333D02*
X123454819Y-97159571D01*
X123454819Y-97159571D02*
X123454819Y-97350047D01*
X123454819Y-97350047D02*
X123407200Y-97445285D01*
X123407200Y-97445285D02*
X123359580Y-97492904D01*
X123359580Y-97492904D02*
X123264342Y-97540523D01*
X123264342Y-97540523D02*
X122454819Y-97540523D01*
X122788152Y-98445285D02*
X123454819Y-98445285D01*
X122407200Y-98207190D02*
X123121485Y-97969095D01*
X123121485Y-97969095D02*
X123121485Y-98588142D01*
X130567857Y-81865997D02*
X130598809Y-81896950D01*
X130598809Y-81896950D02*
X130691667Y-81927902D01*
X130691667Y-81927902D02*
X130753571Y-81927902D01*
X130753571Y-81927902D02*
X130846428Y-81896950D01*
X130846428Y-81896950D02*
X130908333Y-81835045D01*
X130908333Y-81835045D02*
X130939286Y-81773140D01*
X130939286Y-81773140D02*
X130970238Y-81649330D01*
X130970238Y-81649330D02*
X130970238Y-81556473D01*
X130970238Y-81556473D02*
X130939286Y-81432664D01*
X130939286Y-81432664D02*
X130908333Y-81370759D01*
X130908333Y-81370759D02*
X130846428Y-81308854D01*
X130846428Y-81308854D02*
X130753571Y-81277902D01*
X130753571Y-81277902D02*
X130691667Y-81277902D01*
X130691667Y-81277902D02*
X130598809Y-81308854D01*
X130598809Y-81308854D02*
X130567857Y-81339807D01*
X129948809Y-81927902D02*
X130320238Y-81927902D01*
X130134524Y-81927902D02*
X130134524Y-81277902D01*
X130134524Y-81277902D02*
X130196428Y-81370759D01*
X130196428Y-81370759D02*
X130258333Y-81432664D01*
X130258333Y-81432664D02*
X130320238Y-81463616D01*
X129546428Y-81277902D02*
X129484523Y-81277902D01*
X129484523Y-81277902D02*
X129422619Y-81308854D01*
X129422619Y-81308854D02*
X129391666Y-81339807D01*
X129391666Y-81339807D02*
X129360714Y-81401711D01*
X129360714Y-81401711D02*
X129329761Y-81525521D01*
X129329761Y-81525521D02*
X129329761Y-81680283D01*
X129329761Y-81680283D02*
X129360714Y-81804092D01*
X129360714Y-81804092D02*
X129391666Y-81865997D01*
X129391666Y-81865997D02*
X129422619Y-81896950D01*
X129422619Y-81896950D02*
X129484523Y-81927902D01*
X129484523Y-81927902D02*
X129546428Y-81927902D01*
X129546428Y-81927902D02*
X129608333Y-81896950D01*
X129608333Y-81896950D02*
X129639285Y-81865997D01*
X129639285Y-81865997D02*
X129670238Y-81804092D01*
X129670238Y-81804092D02*
X129701190Y-81680283D01*
X129701190Y-81680283D02*
X129701190Y-81525521D01*
X129701190Y-81525521D02*
X129670238Y-81401711D01*
X129670238Y-81401711D02*
X129639285Y-81339807D01*
X129639285Y-81339807D02*
X129608333Y-81308854D01*
X129608333Y-81308854D02*
X129546428Y-81277902D01*
X101150819Y-96889095D02*
X101960342Y-96889095D01*
X101960342Y-96889095D02*
X102055580Y-96936714D01*
X102055580Y-96936714D02*
X102103200Y-96984333D01*
X102103200Y-96984333D02*
X102150819Y-97079571D01*
X102150819Y-97079571D02*
X102150819Y-97270047D01*
X102150819Y-97270047D02*
X102103200Y-97365285D01*
X102103200Y-97365285D02*
X102055580Y-97412904D01*
X102055580Y-97412904D02*
X101960342Y-97460523D01*
X101960342Y-97460523D02*
X101150819Y-97460523D01*
X101246057Y-97889095D02*
X101198438Y-97936714D01*
X101198438Y-97936714D02*
X101150819Y-98031952D01*
X101150819Y-98031952D02*
X101150819Y-98270047D01*
X101150819Y-98270047D02*
X101198438Y-98365285D01*
X101198438Y-98365285D02*
X101246057Y-98412904D01*
X101246057Y-98412904D02*
X101341295Y-98460523D01*
X101341295Y-98460523D02*
X101436533Y-98460523D01*
X101436533Y-98460523D02*
X101579390Y-98412904D01*
X101579390Y-98412904D02*
X102150819Y-97841476D01*
X102150819Y-97841476D02*
X102150819Y-98460523D01*
X109108333Y-81865997D02*
X109139285Y-81896950D01*
X109139285Y-81896950D02*
X109232143Y-81927902D01*
X109232143Y-81927902D02*
X109294047Y-81927902D01*
X109294047Y-81927902D02*
X109386904Y-81896950D01*
X109386904Y-81896950D02*
X109448809Y-81835045D01*
X109448809Y-81835045D02*
X109479762Y-81773140D01*
X109479762Y-81773140D02*
X109510714Y-81649330D01*
X109510714Y-81649330D02*
X109510714Y-81556473D01*
X109510714Y-81556473D02*
X109479762Y-81432664D01*
X109479762Y-81432664D02*
X109448809Y-81370759D01*
X109448809Y-81370759D02*
X109386904Y-81308854D01*
X109386904Y-81308854D02*
X109294047Y-81277902D01*
X109294047Y-81277902D02*
X109232143Y-81277902D01*
X109232143Y-81277902D02*
X109139285Y-81308854D01*
X109139285Y-81308854D02*
X109108333Y-81339807D01*
X108551190Y-81277902D02*
X108675000Y-81277902D01*
X108675000Y-81277902D02*
X108736904Y-81308854D01*
X108736904Y-81308854D02*
X108767857Y-81339807D01*
X108767857Y-81339807D02*
X108829762Y-81432664D01*
X108829762Y-81432664D02*
X108860714Y-81556473D01*
X108860714Y-81556473D02*
X108860714Y-81804092D01*
X108860714Y-81804092D02*
X108829762Y-81865997D01*
X108829762Y-81865997D02*
X108798809Y-81896950D01*
X108798809Y-81896950D02*
X108736904Y-81927902D01*
X108736904Y-81927902D02*
X108613095Y-81927902D01*
X108613095Y-81927902D02*
X108551190Y-81896950D01*
X108551190Y-81896950D02*
X108520238Y-81865997D01*
X108520238Y-81865997D02*
X108489285Y-81804092D01*
X108489285Y-81804092D02*
X108489285Y-81649330D01*
X108489285Y-81649330D02*
X108520238Y-81587426D01*
X108520238Y-81587426D02*
X108551190Y-81556473D01*
X108551190Y-81556473D02*
X108613095Y-81525521D01*
X108613095Y-81525521D02*
X108736904Y-81525521D01*
X108736904Y-81525521D02*
X108798809Y-81556473D01*
X108798809Y-81556473D02*
X108829762Y-81587426D01*
X108829762Y-81587426D02*
X108860714Y-81649330D01*
X100108333Y-79865997D02*
X100139285Y-79896950D01*
X100139285Y-79896950D02*
X100232143Y-79927902D01*
X100232143Y-79927902D02*
X100294047Y-79927902D01*
X100294047Y-79927902D02*
X100386904Y-79896950D01*
X100386904Y-79896950D02*
X100448809Y-79835045D01*
X100448809Y-79835045D02*
X100479762Y-79773140D01*
X100479762Y-79773140D02*
X100510714Y-79649330D01*
X100510714Y-79649330D02*
X100510714Y-79556473D01*
X100510714Y-79556473D02*
X100479762Y-79432664D01*
X100479762Y-79432664D02*
X100448809Y-79370759D01*
X100448809Y-79370759D02*
X100386904Y-79308854D01*
X100386904Y-79308854D02*
X100294047Y-79277902D01*
X100294047Y-79277902D02*
X100232143Y-79277902D01*
X100232143Y-79277902D02*
X100139285Y-79308854D01*
X100139285Y-79308854D02*
X100108333Y-79339807D01*
X99520238Y-79277902D02*
X99829762Y-79277902D01*
X99829762Y-79277902D02*
X99860714Y-79587426D01*
X99860714Y-79587426D02*
X99829762Y-79556473D01*
X99829762Y-79556473D02*
X99767857Y-79525521D01*
X99767857Y-79525521D02*
X99613095Y-79525521D01*
X99613095Y-79525521D02*
X99551190Y-79556473D01*
X99551190Y-79556473D02*
X99520238Y-79587426D01*
X99520238Y-79587426D02*
X99489285Y-79649330D01*
X99489285Y-79649330D02*
X99489285Y-79804092D01*
X99489285Y-79804092D02*
X99520238Y-79865997D01*
X99520238Y-79865997D02*
X99551190Y-79896950D01*
X99551190Y-79896950D02*
X99613095Y-79927902D01*
X99613095Y-79927902D02*
X99767857Y-79927902D01*
X99767857Y-79927902D02*
X99829762Y-79896950D01*
X99829762Y-79896950D02*
X99860714Y-79865997D01*
X120417857Y-79865997D02*
X120448809Y-79896950D01*
X120448809Y-79896950D02*
X120541667Y-79927902D01*
X120541667Y-79927902D02*
X120603571Y-79927902D01*
X120603571Y-79927902D02*
X120696428Y-79896950D01*
X120696428Y-79896950D02*
X120758333Y-79835045D01*
X120758333Y-79835045D02*
X120789286Y-79773140D01*
X120789286Y-79773140D02*
X120820238Y-79649330D01*
X120820238Y-79649330D02*
X120820238Y-79556473D01*
X120820238Y-79556473D02*
X120789286Y-79432664D01*
X120789286Y-79432664D02*
X120758333Y-79370759D01*
X120758333Y-79370759D02*
X120696428Y-79308854D01*
X120696428Y-79308854D02*
X120603571Y-79277902D01*
X120603571Y-79277902D02*
X120541667Y-79277902D01*
X120541667Y-79277902D02*
X120448809Y-79308854D01*
X120448809Y-79308854D02*
X120417857Y-79339807D01*
X119798809Y-79927902D02*
X120170238Y-79927902D01*
X119984524Y-79927902D02*
X119984524Y-79277902D01*
X119984524Y-79277902D02*
X120046428Y-79370759D01*
X120046428Y-79370759D02*
X120108333Y-79432664D01*
X120108333Y-79432664D02*
X120170238Y-79463616D01*
X119179761Y-79927902D02*
X119551190Y-79927902D01*
X119365476Y-79927902D02*
X119365476Y-79277902D01*
X119365476Y-79277902D02*
X119427380Y-79370759D01*
X119427380Y-79370759D02*
X119489285Y-79432664D01*
X119489285Y-79432664D02*
X119551190Y-79463616D01*
X163267857Y-94165997D02*
X163298809Y-94196950D01*
X163298809Y-94196950D02*
X163391667Y-94227902D01*
X163391667Y-94227902D02*
X163453571Y-94227902D01*
X163453571Y-94227902D02*
X163546428Y-94196950D01*
X163546428Y-94196950D02*
X163608333Y-94135045D01*
X163608333Y-94135045D02*
X163639286Y-94073140D01*
X163639286Y-94073140D02*
X163670238Y-93949330D01*
X163670238Y-93949330D02*
X163670238Y-93856473D01*
X163670238Y-93856473D02*
X163639286Y-93732664D01*
X163639286Y-93732664D02*
X163608333Y-93670759D01*
X163608333Y-93670759D02*
X163546428Y-93608854D01*
X163546428Y-93608854D02*
X163453571Y-93577902D01*
X163453571Y-93577902D02*
X163391667Y-93577902D01*
X163391667Y-93577902D02*
X163298809Y-93608854D01*
X163298809Y-93608854D02*
X163267857Y-93639807D01*
X163020238Y-93639807D02*
X162989286Y-93608854D01*
X162989286Y-93608854D02*
X162927381Y-93577902D01*
X162927381Y-93577902D02*
X162772619Y-93577902D01*
X162772619Y-93577902D02*
X162710714Y-93608854D01*
X162710714Y-93608854D02*
X162679762Y-93639807D01*
X162679762Y-93639807D02*
X162648809Y-93701711D01*
X162648809Y-93701711D02*
X162648809Y-93763616D01*
X162648809Y-93763616D02*
X162679762Y-93856473D01*
X162679762Y-93856473D02*
X163051190Y-94227902D01*
X163051190Y-94227902D02*
X162648809Y-94227902D01*
X162401190Y-93639807D02*
X162370238Y-93608854D01*
X162370238Y-93608854D02*
X162308333Y-93577902D01*
X162308333Y-93577902D02*
X162153571Y-93577902D01*
X162153571Y-93577902D02*
X162091666Y-93608854D01*
X162091666Y-93608854D02*
X162060714Y-93639807D01*
X162060714Y-93639807D02*
X162029761Y-93701711D01*
X162029761Y-93701711D02*
X162029761Y-93763616D01*
X162029761Y-93763616D02*
X162060714Y-93856473D01*
X162060714Y-93856473D02*
X162432142Y-94227902D01*
X162432142Y-94227902D02*
X162029761Y-94227902D01*
X161080997Y-90732142D02*
X161111950Y-90701190D01*
X161111950Y-90701190D02*
X161142902Y-90608332D01*
X161142902Y-90608332D02*
X161142902Y-90546428D01*
X161142902Y-90546428D02*
X161111950Y-90453571D01*
X161111950Y-90453571D02*
X161050045Y-90391666D01*
X161050045Y-90391666D02*
X160988140Y-90360713D01*
X160988140Y-90360713D02*
X160864330Y-90329761D01*
X160864330Y-90329761D02*
X160771473Y-90329761D01*
X160771473Y-90329761D02*
X160647664Y-90360713D01*
X160647664Y-90360713D02*
X160585759Y-90391666D01*
X160585759Y-90391666D02*
X160523854Y-90453571D01*
X160523854Y-90453571D02*
X160492902Y-90546428D01*
X160492902Y-90546428D02*
X160492902Y-90608332D01*
X160492902Y-90608332D02*
X160523854Y-90701190D01*
X160523854Y-90701190D02*
X160554807Y-90732142D01*
X160554807Y-90979761D02*
X160523854Y-91010713D01*
X160523854Y-91010713D02*
X160492902Y-91072618D01*
X160492902Y-91072618D02*
X160492902Y-91227380D01*
X160492902Y-91227380D02*
X160523854Y-91289285D01*
X160523854Y-91289285D02*
X160554807Y-91320237D01*
X160554807Y-91320237D02*
X160616711Y-91351190D01*
X160616711Y-91351190D02*
X160678616Y-91351190D01*
X160678616Y-91351190D02*
X160771473Y-91320237D01*
X160771473Y-91320237D02*
X161142902Y-90948809D01*
X161142902Y-90948809D02*
X161142902Y-91351190D01*
X160492902Y-91753571D02*
X160492902Y-91815476D01*
X160492902Y-91815476D02*
X160523854Y-91877380D01*
X160523854Y-91877380D02*
X160554807Y-91908333D01*
X160554807Y-91908333D02*
X160616711Y-91939285D01*
X160616711Y-91939285D02*
X160740521Y-91970238D01*
X160740521Y-91970238D02*
X160895283Y-91970238D01*
X160895283Y-91970238D02*
X161019092Y-91939285D01*
X161019092Y-91939285D02*
X161080997Y-91908333D01*
X161080997Y-91908333D02*
X161111950Y-91877380D01*
X161111950Y-91877380D02*
X161142902Y-91815476D01*
X161142902Y-91815476D02*
X161142902Y-91753571D01*
X161142902Y-91753571D02*
X161111950Y-91691666D01*
X161111950Y-91691666D02*
X161080997Y-91660714D01*
X161080997Y-91660714D02*
X161019092Y-91629761D01*
X161019092Y-91629761D02*
X160895283Y-91598809D01*
X160895283Y-91598809D02*
X160740521Y-91598809D01*
X160740521Y-91598809D02*
X160616711Y-91629761D01*
X160616711Y-91629761D02*
X160554807Y-91660714D01*
X160554807Y-91660714D02*
X160523854Y-91691666D01*
X160523854Y-91691666D02*
X160492902Y-91753571D01*
X134758333Y-68865997D02*
X134789285Y-68896950D01*
X134789285Y-68896950D02*
X134882143Y-68927902D01*
X134882143Y-68927902D02*
X134944047Y-68927902D01*
X134944047Y-68927902D02*
X135036904Y-68896950D01*
X135036904Y-68896950D02*
X135098809Y-68835045D01*
X135098809Y-68835045D02*
X135129762Y-68773140D01*
X135129762Y-68773140D02*
X135160714Y-68649330D01*
X135160714Y-68649330D02*
X135160714Y-68556473D01*
X135160714Y-68556473D02*
X135129762Y-68432664D01*
X135129762Y-68432664D02*
X135098809Y-68370759D01*
X135098809Y-68370759D02*
X135036904Y-68308854D01*
X135036904Y-68308854D02*
X134944047Y-68277902D01*
X134944047Y-68277902D02*
X134882143Y-68277902D01*
X134882143Y-68277902D02*
X134789285Y-68308854D01*
X134789285Y-68308854D02*
X134758333Y-68339807D01*
X134510714Y-68339807D02*
X134479762Y-68308854D01*
X134479762Y-68308854D02*
X134417857Y-68277902D01*
X134417857Y-68277902D02*
X134263095Y-68277902D01*
X134263095Y-68277902D02*
X134201190Y-68308854D01*
X134201190Y-68308854D02*
X134170238Y-68339807D01*
X134170238Y-68339807D02*
X134139285Y-68401711D01*
X134139285Y-68401711D02*
X134139285Y-68463616D01*
X134139285Y-68463616D02*
X134170238Y-68556473D01*
X134170238Y-68556473D02*
X134541666Y-68927902D01*
X134541666Y-68927902D02*
X134139285Y-68927902D01*
X148767857Y-94230997D02*
X148798809Y-94261950D01*
X148798809Y-94261950D02*
X148891667Y-94292902D01*
X148891667Y-94292902D02*
X148953571Y-94292902D01*
X148953571Y-94292902D02*
X149046428Y-94261950D01*
X149046428Y-94261950D02*
X149108333Y-94200045D01*
X149108333Y-94200045D02*
X149139286Y-94138140D01*
X149139286Y-94138140D02*
X149170238Y-94014330D01*
X149170238Y-94014330D02*
X149170238Y-93921473D01*
X149170238Y-93921473D02*
X149139286Y-93797664D01*
X149139286Y-93797664D02*
X149108333Y-93735759D01*
X149108333Y-93735759D02*
X149046428Y-93673854D01*
X149046428Y-93673854D02*
X148953571Y-93642902D01*
X148953571Y-93642902D02*
X148891667Y-93642902D01*
X148891667Y-93642902D02*
X148798809Y-93673854D01*
X148798809Y-93673854D02*
X148767857Y-93704807D01*
X148148809Y-94292902D02*
X148520238Y-94292902D01*
X148334524Y-94292902D02*
X148334524Y-93642902D01*
X148334524Y-93642902D02*
X148396428Y-93735759D01*
X148396428Y-93735759D02*
X148458333Y-93797664D01*
X148458333Y-93797664D02*
X148520238Y-93828616D01*
X147932142Y-93642902D02*
X147498809Y-93642902D01*
X147498809Y-93642902D02*
X147777380Y-94292902D01*
X183917857Y-82730997D02*
X183948809Y-82761950D01*
X183948809Y-82761950D02*
X184041667Y-82792902D01*
X184041667Y-82792902D02*
X184103571Y-82792902D01*
X184103571Y-82792902D02*
X184196428Y-82761950D01*
X184196428Y-82761950D02*
X184258333Y-82700045D01*
X184258333Y-82700045D02*
X184289286Y-82638140D01*
X184289286Y-82638140D02*
X184320238Y-82514330D01*
X184320238Y-82514330D02*
X184320238Y-82421473D01*
X184320238Y-82421473D02*
X184289286Y-82297664D01*
X184289286Y-82297664D02*
X184258333Y-82235759D01*
X184258333Y-82235759D02*
X184196428Y-82173854D01*
X184196428Y-82173854D02*
X184103571Y-82142902D01*
X184103571Y-82142902D02*
X184041667Y-82142902D01*
X184041667Y-82142902D02*
X183948809Y-82173854D01*
X183948809Y-82173854D02*
X183917857Y-82204807D01*
X183670238Y-82204807D02*
X183639286Y-82173854D01*
X183639286Y-82173854D02*
X183577381Y-82142902D01*
X183577381Y-82142902D02*
X183422619Y-82142902D01*
X183422619Y-82142902D02*
X183360714Y-82173854D01*
X183360714Y-82173854D02*
X183329762Y-82204807D01*
X183329762Y-82204807D02*
X183298809Y-82266711D01*
X183298809Y-82266711D02*
X183298809Y-82328616D01*
X183298809Y-82328616D02*
X183329762Y-82421473D01*
X183329762Y-82421473D02*
X183701190Y-82792902D01*
X183701190Y-82792902D02*
X183298809Y-82792902D01*
X182741666Y-82142902D02*
X182865476Y-82142902D01*
X182865476Y-82142902D02*
X182927380Y-82173854D01*
X182927380Y-82173854D02*
X182958333Y-82204807D01*
X182958333Y-82204807D02*
X183020238Y-82297664D01*
X183020238Y-82297664D02*
X183051190Y-82421473D01*
X183051190Y-82421473D02*
X183051190Y-82669092D01*
X183051190Y-82669092D02*
X183020238Y-82730997D01*
X183020238Y-82730997D02*
X182989285Y-82761950D01*
X182989285Y-82761950D02*
X182927380Y-82792902D01*
X182927380Y-82792902D02*
X182803571Y-82792902D01*
X182803571Y-82792902D02*
X182741666Y-82761950D01*
X182741666Y-82761950D02*
X182710714Y-82730997D01*
X182710714Y-82730997D02*
X182679761Y-82669092D01*
X182679761Y-82669092D02*
X182679761Y-82514330D01*
X182679761Y-82514330D02*
X182710714Y-82452426D01*
X182710714Y-82452426D02*
X182741666Y-82421473D01*
X182741666Y-82421473D02*
X182803571Y-82390521D01*
X182803571Y-82390521D02*
X182927380Y-82390521D01*
X182927380Y-82390521D02*
X182989285Y-82421473D01*
X182989285Y-82421473D02*
X183020238Y-82452426D01*
X183020238Y-82452426D02*
X183051190Y-82514330D01*
X163617857Y-97230997D02*
X163648809Y-97261950D01*
X163648809Y-97261950D02*
X163741667Y-97292902D01*
X163741667Y-97292902D02*
X163803571Y-97292902D01*
X163803571Y-97292902D02*
X163896428Y-97261950D01*
X163896428Y-97261950D02*
X163958333Y-97200045D01*
X163958333Y-97200045D02*
X163989286Y-97138140D01*
X163989286Y-97138140D02*
X164020238Y-97014330D01*
X164020238Y-97014330D02*
X164020238Y-96921473D01*
X164020238Y-96921473D02*
X163989286Y-96797664D01*
X163989286Y-96797664D02*
X163958333Y-96735759D01*
X163958333Y-96735759D02*
X163896428Y-96673854D01*
X163896428Y-96673854D02*
X163803571Y-96642902D01*
X163803571Y-96642902D02*
X163741667Y-96642902D01*
X163741667Y-96642902D02*
X163648809Y-96673854D01*
X163648809Y-96673854D02*
X163617857Y-96704807D01*
X162998809Y-97292902D02*
X163370238Y-97292902D01*
X163184524Y-97292902D02*
X163184524Y-96642902D01*
X163184524Y-96642902D02*
X163246428Y-96735759D01*
X163246428Y-96735759D02*
X163308333Y-96797664D01*
X163308333Y-96797664D02*
X163370238Y-96828616D01*
X162689285Y-97292902D02*
X162565476Y-97292902D01*
X162565476Y-97292902D02*
X162503571Y-97261950D01*
X162503571Y-97261950D02*
X162472619Y-97230997D01*
X162472619Y-97230997D02*
X162410714Y-97138140D01*
X162410714Y-97138140D02*
X162379761Y-97014330D01*
X162379761Y-97014330D02*
X162379761Y-96766711D01*
X162379761Y-96766711D02*
X162410714Y-96704807D01*
X162410714Y-96704807D02*
X162441666Y-96673854D01*
X162441666Y-96673854D02*
X162503571Y-96642902D01*
X162503571Y-96642902D02*
X162627380Y-96642902D01*
X162627380Y-96642902D02*
X162689285Y-96673854D01*
X162689285Y-96673854D02*
X162720238Y-96704807D01*
X162720238Y-96704807D02*
X162751190Y-96766711D01*
X162751190Y-96766711D02*
X162751190Y-96921473D01*
X162751190Y-96921473D02*
X162720238Y-96983378D01*
X162720238Y-96983378D02*
X162689285Y-97014330D01*
X162689285Y-97014330D02*
X162627380Y-97045283D01*
X162627380Y-97045283D02*
X162503571Y-97045283D01*
X162503571Y-97045283D02*
X162441666Y-97014330D01*
X162441666Y-97014330D02*
X162410714Y-96983378D01*
X162410714Y-96983378D02*
X162379761Y-96921473D01*
X148767857Y-97230997D02*
X148798809Y-97261950D01*
X148798809Y-97261950D02*
X148891667Y-97292902D01*
X148891667Y-97292902D02*
X148953571Y-97292902D01*
X148953571Y-97292902D02*
X149046428Y-97261950D01*
X149046428Y-97261950D02*
X149108333Y-97200045D01*
X149108333Y-97200045D02*
X149139286Y-97138140D01*
X149139286Y-97138140D02*
X149170238Y-97014330D01*
X149170238Y-97014330D02*
X149170238Y-96921473D01*
X149170238Y-96921473D02*
X149139286Y-96797664D01*
X149139286Y-96797664D02*
X149108333Y-96735759D01*
X149108333Y-96735759D02*
X149046428Y-96673854D01*
X149046428Y-96673854D02*
X148953571Y-96642902D01*
X148953571Y-96642902D02*
X148891667Y-96642902D01*
X148891667Y-96642902D02*
X148798809Y-96673854D01*
X148798809Y-96673854D02*
X148767857Y-96704807D01*
X148148809Y-97292902D02*
X148520238Y-97292902D01*
X148334524Y-97292902D02*
X148334524Y-96642902D01*
X148334524Y-96642902D02*
X148396428Y-96735759D01*
X148396428Y-96735759D02*
X148458333Y-96797664D01*
X148458333Y-96797664D02*
X148520238Y-96828616D01*
X147560714Y-96642902D02*
X147870238Y-96642902D01*
X147870238Y-96642902D02*
X147901190Y-96952426D01*
X147901190Y-96952426D02*
X147870238Y-96921473D01*
X147870238Y-96921473D02*
X147808333Y-96890521D01*
X147808333Y-96890521D02*
X147653571Y-96890521D01*
X147653571Y-96890521D02*
X147591666Y-96921473D01*
X147591666Y-96921473D02*
X147560714Y-96952426D01*
X147560714Y-96952426D02*
X147529761Y-97014330D01*
X147529761Y-97014330D02*
X147529761Y-97169092D01*
X147529761Y-97169092D02*
X147560714Y-97230997D01*
X147560714Y-97230997D02*
X147591666Y-97261950D01*
X147591666Y-97261950D02*
X147653571Y-97292902D01*
X147653571Y-97292902D02*
X147808333Y-97292902D01*
X147808333Y-97292902D02*
X147870238Y-97261950D01*
X147870238Y-97261950D02*
X147901190Y-97230997D01*
%TO.C,C25*%
X146850000Y-60750000D02*
X146850000Y-62250000D01*
X147150000Y-62250000D02*
X147150000Y-60750000D01*
%TO.C,C3*%
X149350000Y-73750000D02*
X149350000Y-75250000D01*
X149650000Y-75250000D02*
X149650000Y-73750000D01*
%TO.C,C24*%
X146850000Y-63000000D02*
X146850000Y-64500000D01*
X147150000Y-64500000D02*
X147150000Y-63000000D01*
%TO.C,C7*%
X110000000Y-76385000D02*
X110000000Y-77885000D01*
X110300000Y-77885000D02*
X110300000Y-76385000D01*
%TO.C,C12*%
X130500000Y-76385000D02*
X130500000Y-77885000D01*
X130800000Y-77885000D02*
X130800000Y-76385000D01*
%TO.C,C16*%
X145630000Y-94370000D02*
X147130000Y-94370000D01*
X147130000Y-94070000D02*
X145630000Y-94070000D01*
%TO.C,C1*%
X116850000Y-66385000D02*
X116850000Y-67885000D01*
X117150000Y-67885000D02*
X117150000Y-66385000D01*
D11*
%TO.C,U4*%
X121830000Y-90056000D02*
X139610000Y-90056000D01*
X121830000Y-93104000D02*
X121830000Y-90056000D01*
X121830000Y-93104000D02*
X121830000Y-102248000D01*
X121830000Y-103264000D02*
X121830000Y-102248000D01*
X139610000Y-90056000D02*
X139610000Y-93104000D01*
X139610000Y-93104000D02*
X121830000Y-93104000D01*
X139610000Y-102248000D02*
X139610000Y-93104000D01*
X139610000Y-102248000D02*
X139610000Y-103264000D01*
X139610000Y-103264000D02*
X121830000Y-103264000D01*
D12*
%TO.C,J3*%
X116685142Y-110670000D02*
X116685142Y-113330000D01*
X116685142Y-110670000D02*
X177705142Y-110670000D01*
X116685142Y-113330000D02*
X177705142Y-113330000D01*
X177705142Y-110670000D02*
X177705142Y-113330000D01*
X178975142Y-110670000D02*
X180305142Y-110670000D01*
X180305142Y-110670000D02*
X180305142Y-112000000D01*
D10*
%TO.C,C10*%
X130500000Y-79385000D02*
X130500000Y-80885000D01*
X130800000Y-80885000D02*
X130800000Y-79385000D01*
D11*
%TO.C,U2*%
X100680000Y-90031000D02*
X118460000Y-90031000D01*
X100680000Y-93079000D02*
X100680000Y-90031000D01*
X100680000Y-93079000D02*
X100680000Y-102223000D01*
X100680000Y-103239000D02*
X100680000Y-102223000D01*
X118460000Y-90031000D02*
X118460000Y-93079000D01*
X118460000Y-93079000D02*
X100680000Y-93079000D01*
X118460000Y-102223000D02*
X118460000Y-93079000D01*
X118460000Y-102223000D02*
X118460000Y-103239000D01*
X118460000Y-103239000D02*
X100680000Y-103239000D01*
D10*
%TO.C,C6*%
X110000000Y-79385000D02*
X110000000Y-80885000D01*
X110300000Y-80885000D02*
X110300000Y-79385000D01*
%TO.C,C5*%
X101000000Y-77385000D02*
X101000000Y-78885000D01*
X101300000Y-78885000D02*
X101300000Y-77385000D01*
%TO.C,C11*%
X121000000Y-77385000D02*
X121000000Y-78885000D01*
X121300000Y-78885000D02*
X121300000Y-77385000D01*
%TO.C,C22*%
X163700000Y-91750000D02*
X163700000Y-93250000D01*
X164000000Y-93250000D02*
X164000000Y-91750000D01*
%TO.C,C20*%
X160100000Y-94300000D02*
X161600000Y-94300000D01*
X161600000Y-94000000D02*
X160100000Y-94000000D01*
%TO.C,C2*%
X135500000Y-66385000D02*
X135500000Y-67885000D01*
X135800000Y-67885000D02*
X135800000Y-66385000D01*
D12*
%TO.C,J4*%
X116685142Y-52250000D02*
X116685142Y-54910000D01*
X116685142Y-52250000D02*
X177705142Y-52250000D01*
X116685142Y-54910000D02*
X177705142Y-54910000D01*
X177705142Y-52250000D02*
X177705142Y-54910000D01*
X178975142Y-52250000D02*
X180305142Y-52250000D01*
X180305142Y-52250000D02*
X180305142Y-53580000D01*
D10*
%TO.C,C17*%
X149200000Y-91750000D02*
X149200000Y-93250000D01*
X149500000Y-93250000D02*
X149500000Y-91750000D01*
%TO.C,C26*%
X184350000Y-80250000D02*
X184350000Y-81750000D01*
X184650000Y-81750000D02*
X184650000Y-80250000D01*
%TO.C,C19*%
X163700000Y-94750000D02*
X163700000Y-96250000D01*
X164000000Y-96250000D02*
X164000000Y-94750000D01*
%TO.C,C15*%
X149200000Y-94750000D02*
X149200000Y-96250000D01*
X149500000Y-96250000D02*
X149500000Y-94750000D01*
%TD*%
M02*
