%TF.GenerationSoftware,KiCad,Pcbnew,8.0.2*%
%TF.CreationDate,2024-11-04T15:30:26+03:00*%
%TF.ProjectId,board,626f6172-642e-46b6-9963-61645f706362,rev?*%
%TF.SameCoordinates,Original*%
%TF.FileFunction,Soldermask,Bot*%
%TF.FilePolarity,Negative*%
%FSLAX46Y46*%
G04 Gerber Fmt 4.6, Leading zero omitted, Abs format (unit mm)*
G04 Created by KiCad (PCBNEW 8.0.2) date 2024-11-04 15:30:26*
%MOMM*%
%LPD*%
G01*
G04 APERTURE LIST*
%ADD10C,1.778000*%
%ADD11O,1.727200X2.032000*%
%ADD12C,1.500000*%
%ADD13C,6.000000*%
%ADD14R,1.700000X1.700000*%
%ADD15O,1.700000X1.700000*%
%ADD16C,1.200000*%
%ADD17C,1.700000*%
%ADD18R,1.600000X1.600000*%
%ADD19O,1.600000X1.600000*%
%ADD20R,1.000000X1.000000*%
G04 APERTURE END LIST*
D10*
%TO.C,U3*%
X123180000Y-87580000D03*
X125720000Y-87580000D03*
X128260000Y-87580000D03*
X130800000Y-87580000D03*
X133340000Y-87580000D03*
X135880000Y-87580000D03*
X138420000Y-87580000D03*
%TD*%
D11*
%TO.C,U11*%
X171350000Y-58500000D03*
X168810000Y-58500000D03*
X166270000Y-58500000D03*
X163730000Y-58500000D03*
X161190000Y-58500000D03*
X158650000Y-58500000D03*
%TD*%
D12*
%TO.C,J4*%
X183712184Y-53577958D03*
X184382184Y-51967958D03*
X184382184Y-55187958D03*
X185962184Y-51327958D03*
D13*
X185962184Y-53577958D03*
D12*
X185962184Y-55827958D03*
X187532184Y-51967958D03*
X187532184Y-55187958D03*
X188212184Y-53577958D03*
%TD*%
D14*
%TO.C,J7*%
X187000000Y-94460000D03*
D15*
X187000000Y-97000000D03*
%TD*%
D16*
%TO.C,J5*%
X179900000Y-66750000D03*
X185900000Y-66750000D03*
%TD*%
D12*
%TO.C,J3*%
X183710142Y-112000000D03*
X184380142Y-110390000D03*
X184380142Y-113610000D03*
X185960142Y-109750000D03*
D13*
X185960142Y-112000000D03*
D12*
X185960142Y-114250000D03*
X187530142Y-110390000D03*
X187530142Y-113610000D03*
X188210142Y-112000000D03*
%TD*%
D17*
%TO.C,J9*%
X123100000Y-116500000D03*
X125640000Y-116500000D03*
X128180000Y-116500000D03*
%TD*%
D14*
%TO.C,J6*%
X187000000Y-86460000D03*
D15*
X187000000Y-89000000D03*
%TD*%
D18*
%TO.C,U7*%
X145200000Y-77810000D03*
D19*
X147740000Y-77810000D03*
X150280000Y-77810000D03*
X152820000Y-77810000D03*
X152820000Y-70190000D03*
X150280000Y-70190000D03*
X147740000Y-70190000D03*
X145200000Y-70190000D03*
%TD*%
D10*
%TO.C,U1*%
X101950000Y-87635000D03*
X104490000Y-87635000D03*
X107030000Y-87635000D03*
X109570000Y-87635000D03*
X112110000Y-87635000D03*
X114650000Y-87635000D03*
X117190000Y-87635000D03*
%TD*%
D14*
%TO.C,J8*%
X187000000Y-102460000D03*
D15*
X187000000Y-105000000D03*
%TD*%
D12*
%TO.C,J5*%
X99500142Y-111710000D03*
X100170142Y-110100000D03*
X100170142Y-113320000D03*
X101750142Y-109460000D03*
D13*
X101750142Y-111710000D03*
D12*
X101750142Y-113960000D03*
X103320142Y-110100000D03*
X103320142Y-113320000D03*
X104000142Y-111710000D03*
%TD*%
D18*
%TO.C,U14*%
X142700000Y-66310000D03*
D19*
X145240000Y-66310000D03*
X147780000Y-66310000D03*
X150320000Y-66310000D03*
X150320000Y-58690000D03*
X147780000Y-58690000D03*
X145240000Y-58690000D03*
X142700000Y-58690000D03*
%TD*%
D20*
%TO.C,C25*%
X147850000Y-61500000D03*
X146150000Y-61500000D03*
%TD*%
%TO.C,C3*%
X150350000Y-74500000D03*
X148650000Y-74500000D03*
%TD*%
%TO.C,C24*%
X147850000Y-63750000D03*
X146150000Y-63750000D03*
%TD*%
%TO.C,C7*%
X111000000Y-77135000D03*
X109300000Y-77135000D03*
%TD*%
%TO.C,C12*%
X131500000Y-77135000D03*
X129800000Y-77135000D03*
%TD*%
%TO.C,C16*%
X146380000Y-93370000D03*
X146380000Y-95070000D03*
%TD*%
%TO.C,C1*%
X116150000Y-67135000D03*
X117850000Y-67135000D03*
%TD*%
D10*
%TO.C,U4*%
X123100000Y-91580000D03*
X125640000Y-91580000D03*
X128180000Y-91580000D03*
X130720000Y-91580000D03*
X133260000Y-91580000D03*
X135800000Y-91580000D03*
X138340000Y-91580000D03*
%TD*%
D14*
%TO.C,J3*%
X178975142Y-112000000D03*
D15*
X176435142Y-112000000D03*
X173895142Y-112000000D03*
X171355142Y-112000000D03*
X168815142Y-112000000D03*
X166275142Y-112000000D03*
X163735142Y-112000000D03*
X161195142Y-112000000D03*
X158655142Y-112000000D03*
X156115142Y-112000000D03*
X153575142Y-112000000D03*
X151035142Y-112000000D03*
X148495142Y-112000000D03*
X145955142Y-112000000D03*
X143415142Y-112000000D03*
X140875142Y-112000000D03*
X138335142Y-112000000D03*
X135795142Y-112000000D03*
X133255142Y-112000000D03*
X130715142Y-112000000D03*
X128175142Y-112000000D03*
X125635142Y-112000000D03*
X123095142Y-112000000D03*
X120555142Y-112000000D03*
X118015142Y-112000000D03*
%TD*%
D20*
%TO.C,C10*%
X131500000Y-80135000D03*
X129800000Y-80135000D03*
%TD*%
D10*
%TO.C,U2*%
X101950000Y-91555000D03*
X104490000Y-91555000D03*
X107030000Y-91555000D03*
X109570000Y-91555000D03*
X112110000Y-91555000D03*
X114650000Y-91555000D03*
X117190000Y-91555000D03*
%TD*%
D20*
%TO.C,C6*%
X111000000Y-80135000D03*
X109300000Y-80135000D03*
%TD*%
%TO.C,C5*%
X102000000Y-78135000D03*
X100300000Y-78135000D03*
%TD*%
%TO.C,C11*%
X122000000Y-78135000D03*
X120300000Y-78135000D03*
%TD*%
%TO.C,C22*%
X164700000Y-92500000D03*
X163000000Y-92500000D03*
%TD*%
%TO.C,C20*%
X160850000Y-93300000D03*
X160850000Y-95000000D03*
%TD*%
D12*
%TO.C,J2*%
X104000142Y-53290000D03*
X103330142Y-54900000D03*
X103330142Y-51680000D03*
X101750142Y-55540000D03*
D13*
X101750142Y-53290000D03*
D12*
X101750142Y-51040000D03*
X100180142Y-54900000D03*
X100180142Y-51680000D03*
X99500142Y-53290000D03*
%TD*%
D20*
%TO.C,C2*%
X134800000Y-67135000D03*
X136500000Y-67135000D03*
%TD*%
D14*
%TO.C,J4*%
X178975142Y-53580000D03*
D15*
X176435142Y-53580000D03*
X173895142Y-53580000D03*
X171355142Y-53580000D03*
X168815142Y-53580000D03*
X166275142Y-53580000D03*
X163735142Y-53580000D03*
X161195142Y-53580000D03*
X158655142Y-53580000D03*
X156115142Y-53580000D03*
X153575142Y-53580000D03*
X151035142Y-53580000D03*
X148495142Y-53580000D03*
X145955142Y-53580000D03*
X143415142Y-53580000D03*
X140875142Y-53580000D03*
X138335142Y-53580000D03*
X135795142Y-53580000D03*
X133255142Y-53580000D03*
X130715142Y-53580000D03*
X128175142Y-53580000D03*
X125635142Y-53580000D03*
X123095142Y-53580000D03*
X120555142Y-53580000D03*
X118015142Y-53580000D03*
%TD*%
D20*
%TO.C,C17*%
X150200000Y-92500000D03*
X148500000Y-92500000D03*
%TD*%
%TO.C,C26*%
X183650000Y-81000000D03*
X185350000Y-81000000D03*
%TD*%
%TO.C,C19*%
X164700000Y-95500000D03*
X163000000Y-95500000D03*
%TD*%
%TO.C,C15*%
X150200000Y-95500000D03*
X148500000Y-95500000D03*
%TD*%
M02*
