%TF.GenerationSoftware,KiCad,Pcbnew,8.0.2*%
%TF.CreationDate,2024-09-30T18:20:34+03:00*%
%TF.ProjectId,board,626f6172-642e-46b6-9963-61645f706362,rev?*%
%TF.SameCoordinates,Original*%
%TF.FileFunction,Profile,NP*%
%FSLAX46Y46*%
G04 Gerber Fmt 4.6, Leading zero omitted, Abs format (unit mm)*
G04 Created by KiCad (PCBNEW 8.0.2) date 2024-09-30 18:20:34*
%MOMM*%
%LPD*%
G01*
G04 APERTURE LIST*
%TA.AperFunction,Profile*%
%ADD10C,0.100000*%
%TD*%
G04 APERTURE END LIST*
D10*
X103161427Y-53301285D02*
G75*
G02*
X100358857Y-53301285I-1401285J0D01*
G01*
X100358857Y-53301285D02*
G75*
G02*
X103161427Y-53301285I1401285J0D01*
G01*
X98270142Y-58000001D02*
X107220177Y-58000001D01*
X187392184Y-53580000D02*
G75*
G02*
X184528100Y-53580000I-1432042J0D01*
G01*
X184528100Y-53580000D02*
G75*
G02*
X187392184Y-53580000I1432042J0D01*
G01*
X98330142Y-106920000D02*
X98350142Y-117080000D01*
X189770142Y-117080000D02*
X189770142Y-48500000D01*
X187400143Y-112000000D02*
G75*
G02*
X184599857Y-112000000I-1400143J0D01*
G01*
X184599857Y-112000000D02*
G75*
G02*
X187400143Y-112000000I1400143J0D01*
G01*
X103150713Y-111710571D02*
G75*
G02*
X100349571Y-111710571I-1400571J0D01*
G01*
X100349571Y-111710571D02*
G75*
G02*
X103150713Y-111710571I1400571J0D01*
G01*
X107220142Y-58025000D02*
X107220142Y-106920000D01*
X98270142Y-48500000D02*
X189770142Y-48500000D01*
X103126427Y-53301285D02*
G75*
G02*
X100323857Y-53301285I-1401285J0D01*
G01*
X100323857Y-53301285D02*
G75*
G02*
X103126427Y-53301285I1401285J0D01*
G01*
X107220142Y-106920000D02*
X98330142Y-106920000D01*
X189770142Y-117080000D02*
X98350142Y-117080000D01*
X98270142Y-48500000D02*
X98270142Y-58000001D01*
X103115713Y-111710571D02*
G75*
G02*
X100314571Y-111710571I-1400571J0D01*
G01*
X100314571Y-111710571D02*
G75*
G02*
X103115713Y-111710571I1400571J0D01*
G01*
M02*
