%TF.GenerationSoftware,KiCad,Pcbnew,8.0.2*%
%TF.CreationDate,2024-11-04T15:30:26+03:00*%
%TF.ProjectId,board,626f6172-642e-46b6-9963-61645f706362,rev?*%
%TF.SameCoordinates,Original*%
%TF.FileFunction,Soldermask,Top*%
%TF.FilePolarity,Negative*%
%FSLAX46Y46*%
G04 Gerber Fmt 4.6, Leading zero omitted, Abs format (unit mm)*
G04 Created by KiCad (PCBNEW 8.0.2) date 2024-11-04 15:30:26*
%MOMM*%
%LPD*%
G01*
G04 APERTURE LIST*
G04 Aperture macros list*
%AMRoundRect*
0 Rectangle with rounded corners*
0 $1 Rounding radius*
0 $2 $3 $4 $5 $6 $7 $8 $9 X,Y pos of 4 corners*
0 Add a 4 corners polygon primitive as box body*
4,1,4,$2,$3,$4,$5,$6,$7,$8,$9,$2,$3,0*
0 Add four circle primitives for the rounded corners*
1,1,$1+$1,$2,$3*
1,1,$1+$1,$4,$5*
1,1,$1+$1,$6,$7*
1,1,$1+$1,$8,$9*
0 Add four rect primitives between the rounded corners*
20,1,$1+$1,$2,$3,$4,$5,0*
20,1,$1+$1,$4,$5,$6,$7,0*
20,1,$1+$1,$6,$7,$8,$9,0*
20,1,$1+$1,$8,$9,$2,$3,0*%
G04 Aperture macros list end*
%ADD10RoundRect,0.150000X0.150000X-0.825000X0.150000X0.825000X-0.150000X0.825000X-0.150000X-0.825000X0*%
%ADD11C,1.778000*%
%ADD12R,1.000000X1.000000*%
%ADD13RoundRect,0.150000X-0.875000X-0.150000X0.875000X-0.150000X0.875000X0.150000X-0.875000X0.150000X0*%
%ADD14R,1.300000X0.700000*%
%ADD15O,1.727200X2.032000*%
%ADD16C,1.500000*%
%ADD17C,6.000000*%
%ADD18R,1.700000X1.700000*%
%ADD19O,1.700000X1.700000*%
%ADD20R,3.800000X2.000000*%
%ADD21RoundRect,0.075000X-0.650000X-0.075000X0.650000X-0.075000X0.650000X0.075000X-0.650000X0.075000X0*%
%ADD22C,1.200000*%
%ADD23R,1.500000X3.500000*%
%ADD24C,1.700000*%
%ADD25R,1.600000X1.600000*%
%ADD26O,1.600000X1.600000*%
G04 APERTURE END LIST*
D10*
%TO.C,U13*%
X177595000Y-81975000D03*
X178865000Y-81975000D03*
X180135000Y-81975000D03*
X181405000Y-81975000D03*
X181405000Y-77025000D03*
X180135000Y-77025000D03*
X178865000Y-77025000D03*
X177595000Y-77025000D03*
%TD*%
D11*
%TO.C,U3*%
X123180000Y-87580000D03*
X125720000Y-87580000D03*
X128260000Y-87580000D03*
X130800000Y-87580000D03*
X133340000Y-87580000D03*
X135880000Y-87580000D03*
X138420000Y-87580000D03*
%TD*%
D12*
%TO.C,R12*%
X141500000Y-71850000D03*
X141500000Y-70150000D03*
%TD*%
D13*
%TO.C,U12*%
X158350000Y-89555000D03*
X158350000Y-90825000D03*
X158350000Y-92095000D03*
X158350000Y-93365000D03*
X158350000Y-94635000D03*
X158350000Y-95905000D03*
X158350000Y-97175000D03*
X158350000Y-98445000D03*
X167650000Y-98445000D03*
X167650000Y-97175000D03*
X167650000Y-95905000D03*
X167650000Y-94635000D03*
X167650000Y-93365000D03*
X167650000Y-92095000D03*
X167650000Y-90825000D03*
X167650000Y-89555000D03*
%TD*%
D12*
%TO.C,R15*%
X181150000Y-98000000D03*
X182850000Y-98000000D03*
%TD*%
D14*
%TO.C,C13*%
X132650000Y-72085000D03*
X132650000Y-70185000D03*
%TD*%
D13*
%TO.C,U10*%
X143700000Y-89555000D03*
X143700000Y-90825000D03*
X143700000Y-92095000D03*
X143700000Y-93365000D03*
X143700000Y-94635000D03*
X143700000Y-95905000D03*
X143700000Y-97175000D03*
X143700000Y-98445000D03*
X153000000Y-98445000D03*
X153000000Y-97175000D03*
X153000000Y-95905000D03*
X153000000Y-94635000D03*
X153000000Y-93365000D03*
X153000000Y-92095000D03*
X153000000Y-90825000D03*
X153000000Y-89555000D03*
%TD*%
D12*
%TO.C,R13*%
X176150000Y-96000000D03*
X177850000Y-96000000D03*
%TD*%
D15*
%TO.C,U11*%
X171350000Y-58500000D03*
X168810000Y-58500000D03*
X166270000Y-58500000D03*
X163730000Y-58500000D03*
X161190000Y-58500000D03*
X158650000Y-58500000D03*
%TD*%
D13*
%TO.C,U8*%
X105000000Y-74190000D03*
X105000000Y-75460000D03*
X105000000Y-76730000D03*
X105000000Y-78000000D03*
X105000000Y-79270000D03*
X105000000Y-80540000D03*
X105000000Y-81810000D03*
X105000000Y-83080000D03*
X114300000Y-83080000D03*
X114300000Y-81810000D03*
X114300000Y-80540000D03*
X114300000Y-79270000D03*
X114300000Y-78000000D03*
X114300000Y-76730000D03*
X114300000Y-75460000D03*
X114300000Y-74190000D03*
%TD*%
D16*
%TO.C,J4*%
X183712184Y-53577958D03*
X184382184Y-51967958D03*
X184382184Y-55187958D03*
X185962184Y-51327958D03*
D17*
X185962184Y-53577958D03*
D16*
X185962184Y-55827958D03*
X187532184Y-51967958D03*
X187532184Y-55187958D03*
X188212184Y-53577958D03*
%TD*%
D18*
%TO.C,J7*%
X187000000Y-94460000D03*
D19*
X187000000Y-97000000D03*
%TD*%
D12*
%TO.C,R16*%
X176150000Y-100000000D03*
X177850000Y-100000000D03*
%TD*%
D14*
%TO.C,C8*%
X112000000Y-71950000D03*
X112000000Y-70050000D03*
%TD*%
D20*
%TO.C,J1*%
X163850000Y-103000000D03*
%TD*%
D12*
%TO.C,R7*%
X176150000Y-92000000D03*
X177850000Y-92000000D03*
%TD*%
%TO.C,R11*%
X176150000Y-98000000D03*
X177850000Y-98000000D03*
%TD*%
D21*
%TO.C,U6*%
X127950000Y-66135000D03*
X127950000Y-66635000D03*
X127950000Y-67135000D03*
X127950000Y-67635000D03*
X127950000Y-68135000D03*
X132350000Y-68135000D03*
X132350000Y-67635000D03*
X132350000Y-67135000D03*
X132350000Y-66635000D03*
X132350000Y-66135000D03*
%TD*%
D22*
%TO.C,J5*%
X179900000Y-66750000D03*
X185900000Y-66750000D03*
D23*
X180000000Y-70500000D03*
X182000000Y-63000000D03*
X187000000Y-70500000D03*
%TD*%
D12*
%TO.C,R2*%
X138630000Y-82820000D03*
X138630000Y-84520000D03*
%TD*%
D16*
%TO.C,J3*%
X183710142Y-112000000D03*
X184380142Y-110390000D03*
X184380142Y-113610000D03*
X185960142Y-109750000D03*
D17*
X185960142Y-112000000D03*
D16*
X185960142Y-114250000D03*
X187530142Y-110390000D03*
X187530142Y-113610000D03*
X188210142Y-112000000D03*
%TD*%
D24*
%TO.C,J9*%
X123100000Y-116500000D03*
X125640000Y-116500000D03*
X128180000Y-116500000D03*
%TD*%
D18*
%TO.C,J6*%
X187000000Y-86460000D03*
D19*
X187000000Y-89000000D03*
%TD*%
D25*
%TO.C,U7*%
X145200000Y-77810000D03*
D26*
X147740000Y-77810000D03*
X150280000Y-77810000D03*
X152820000Y-77810000D03*
X152820000Y-70190000D03*
X150280000Y-70190000D03*
X147740000Y-70190000D03*
X145200000Y-70190000D03*
%TD*%
D11*
%TO.C,U1*%
X101950000Y-87635000D03*
X104490000Y-87635000D03*
X107030000Y-87635000D03*
X109570000Y-87635000D03*
X112110000Y-87635000D03*
X114650000Y-87635000D03*
X117190000Y-87635000D03*
%TD*%
D20*
%TO.C,J2*%
X163850000Y-85000000D03*
%TD*%
D12*
%TO.C,R10*%
X181150000Y-92500000D03*
X182850000Y-92500000D03*
%TD*%
D14*
%TO.C,C14*%
X143350000Y-85950000D03*
X143350000Y-84050000D03*
%TD*%
D18*
%TO.C,J8*%
X187000000Y-102460000D03*
D19*
X187000000Y-105000000D03*
%TD*%
D12*
%TO.C,R5*%
X176150000Y-90000000D03*
X177850000Y-90000000D03*
%TD*%
D13*
%TO.C,U9*%
X125150000Y-74135000D03*
X125150000Y-75405000D03*
X125150000Y-76675000D03*
X125150000Y-77945000D03*
X125150000Y-79215000D03*
X125150000Y-80485000D03*
X125150000Y-81755000D03*
X125150000Y-83025000D03*
X134450000Y-83025000D03*
X134450000Y-81755000D03*
X134450000Y-80485000D03*
X134450000Y-79215000D03*
X134450000Y-77945000D03*
X134450000Y-76675000D03*
X134450000Y-75405000D03*
X134450000Y-74135000D03*
%TD*%
D14*
%TO.C,C9*%
X129000000Y-72135000D03*
X129000000Y-70235000D03*
%TD*%
D12*
%TO.C,R9*%
X176150000Y-94000000D03*
X177850000Y-94000000D03*
%TD*%
D16*
%TO.C,J5*%
X99500142Y-111710000D03*
X100170142Y-110100000D03*
X100170142Y-113320000D03*
X101750142Y-109460000D03*
D17*
X101750142Y-111710000D03*
D16*
X101750142Y-113960000D03*
X103320142Y-110100000D03*
X103320142Y-113320000D03*
X104000142Y-111710000D03*
%TD*%
D12*
%TO.C,C23*%
X177940000Y-74180000D03*
X176240000Y-74180000D03*
%TD*%
%TO.C,R1*%
X121150000Y-74400000D03*
X121150000Y-76100000D03*
%TD*%
%TO.C,R8*%
X181000000Y-87150000D03*
X181000000Y-88850000D03*
%TD*%
D14*
%TO.C,C4*%
X108500000Y-71950000D03*
X108500000Y-70050000D03*
%TD*%
%TO.C,C21*%
X167850000Y-86950000D03*
X167850000Y-85050000D03*
%TD*%
D21*
%TO.C,U5*%
X107450000Y-66135000D03*
X107450000Y-66635000D03*
X107450000Y-67135000D03*
X107450000Y-67635000D03*
X107450000Y-68135000D03*
X111850000Y-68135000D03*
X111850000Y-67635000D03*
X111850000Y-67135000D03*
X111850000Y-66635000D03*
X111850000Y-66135000D03*
%TD*%
D25*
%TO.C,U14*%
X142700000Y-66310000D03*
D26*
X145240000Y-66310000D03*
X147780000Y-66310000D03*
X150320000Y-66310000D03*
X150320000Y-58690000D03*
X147780000Y-58690000D03*
X145240000Y-58690000D03*
X142700000Y-58690000D03*
%TD*%
D12*
%TO.C,R4*%
X176150000Y-88000000D03*
X177850000Y-88000000D03*
%TD*%
%TO.C,R14*%
X141500000Y-76000000D03*
X141500000Y-77700000D03*
%TD*%
D14*
%TO.C,C18*%
X167850000Y-101050000D03*
X167850000Y-102950000D03*
%TD*%
D12*
%TO.C,R6*%
X155880000Y-93840000D03*
X155880000Y-92140000D03*
%TD*%
%TO.C,R3*%
X176150000Y-86000000D03*
X177850000Y-86000000D03*
%TD*%
D11*
%TO.C,U4*%
X123100000Y-91580000D03*
X125640000Y-91580000D03*
X128180000Y-91580000D03*
X130720000Y-91580000D03*
X133260000Y-91580000D03*
X135800000Y-91580000D03*
X138340000Y-91580000D03*
%TD*%
D18*
%TO.C,J3*%
X178975142Y-112000000D03*
D19*
X176435142Y-112000000D03*
X173895142Y-112000000D03*
X171355142Y-112000000D03*
X168815142Y-112000000D03*
X166275142Y-112000000D03*
X163735142Y-112000000D03*
X161195142Y-112000000D03*
X158655142Y-112000000D03*
X156115142Y-112000000D03*
X153575142Y-112000000D03*
X151035142Y-112000000D03*
X148495142Y-112000000D03*
X145955142Y-112000000D03*
X143415142Y-112000000D03*
X140875142Y-112000000D03*
X138335142Y-112000000D03*
X135795142Y-112000000D03*
X133255142Y-112000000D03*
X130715142Y-112000000D03*
X128175142Y-112000000D03*
X125635142Y-112000000D03*
X123095142Y-112000000D03*
X120555142Y-112000000D03*
X118015142Y-112000000D03*
%TD*%
D11*
%TO.C,U2*%
X101950000Y-91555000D03*
X104490000Y-91555000D03*
X107030000Y-91555000D03*
X109570000Y-91555000D03*
X112110000Y-91555000D03*
X114650000Y-91555000D03*
X117190000Y-91555000D03*
%TD*%
D16*
%TO.C,J2*%
X104000142Y-53290000D03*
X103330142Y-54900000D03*
X103330142Y-51680000D03*
X101750142Y-55540000D03*
D17*
X101750142Y-53290000D03*
D16*
X101750142Y-51040000D03*
X100180142Y-54900000D03*
X100180142Y-51680000D03*
X99500142Y-53290000D03*
%TD*%
D18*
%TO.C,J4*%
X178975142Y-53580000D03*
D19*
X176435142Y-53580000D03*
X173895142Y-53580000D03*
X171355142Y-53580000D03*
X168815142Y-53580000D03*
X166275142Y-53580000D03*
X163735142Y-53580000D03*
X161195142Y-53580000D03*
X158655142Y-53580000D03*
X156115142Y-53580000D03*
X153575142Y-53580000D03*
X151035142Y-53580000D03*
X148495142Y-53580000D03*
X145955142Y-53580000D03*
X143415142Y-53580000D03*
X140875142Y-53580000D03*
X138335142Y-53580000D03*
X135795142Y-53580000D03*
X133255142Y-53580000D03*
X130715142Y-53580000D03*
X128175142Y-53580000D03*
X125635142Y-53580000D03*
X123095142Y-53580000D03*
X120555142Y-53580000D03*
X118015142Y-53580000D03*
%TD*%
M02*
