%TF.GenerationSoftware,KiCad,Pcbnew,8.0.2*%
%TF.CreationDate,2024-09-30T18:20:34+03:00*%
%TF.ProjectId,board,626f6172-642e-46b6-9963-61645f706362,rev?*%
%TF.SameCoordinates,Original*%
%TF.FileFunction,Legend,Bot*%
%TF.FilePolarity,Positive*%
%FSLAX46Y46*%
G04 Gerber Fmt 4.6, Leading zero omitted, Abs format (unit mm)*
G04 Created by KiCad (PCBNEW 8.0.2) date 2024-09-30 18:20:34*
%MOMM*%
%LPD*%
G01*
G04 APERTURE LIST*
%ADD10C,0.150000*%
%ADD11C,0.120000*%
%ADD12C,0.100000*%
G04 APERTURE END LIST*
D10*
X155630997Y-101692142D02*
X155661950Y-101661190D01*
X155661950Y-101661190D02*
X155692902Y-101568332D01*
X155692902Y-101568332D02*
X155692902Y-101506428D01*
X155692902Y-101506428D02*
X155661950Y-101413571D01*
X155661950Y-101413571D02*
X155600045Y-101351666D01*
X155600045Y-101351666D02*
X155538140Y-101320713D01*
X155538140Y-101320713D02*
X155414330Y-101289761D01*
X155414330Y-101289761D02*
X155321473Y-101289761D01*
X155321473Y-101289761D02*
X155197664Y-101320713D01*
X155197664Y-101320713D02*
X155135759Y-101351666D01*
X155135759Y-101351666D02*
X155073854Y-101413571D01*
X155073854Y-101413571D02*
X155042902Y-101506428D01*
X155042902Y-101506428D02*
X155042902Y-101568332D01*
X155042902Y-101568332D02*
X155073854Y-101661190D01*
X155073854Y-101661190D02*
X155104807Y-101692142D01*
X155692902Y-102311190D02*
X155692902Y-101939761D01*
X155692902Y-102125475D02*
X155042902Y-102125475D01*
X155042902Y-102125475D02*
X155135759Y-102063571D01*
X155135759Y-102063571D02*
X155197664Y-102001666D01*
X155197664Y-102001666D02*
X155228616Y-101939761D01*
X155321473Y-102682619D02*
X155290521Y-102620714D01*
X155290521Y-102620714D02*
X155259569Y-102589761D01*
X155259569Y-102589761D02*
X155197664Y-102558809D01*
X155197664Y-102558809D02*
X155166711Y-102558809D01*
X155166711Y-102558809D02*
X155104807Y-102589761D01*
X155104807Y-102589761D02*
X155073854Y-102620714D01*
X155073854Y-102620714D02*
X155042902Y-102682619D01*
X155042902Y-102682619D02*
X155042902Y-102806428D01*
X155042902Y-102806428D02*
X155073854Y-102868333D01*
X155073854Y-102868333D02*
X155104807Y-102899285D01*
X155104807Y-102899285D02*
X155166711Y-102930238D01*
X155166711Y-102930238D02*
X155197664Y-102930238D01*
X155197664Y-102930238D02*
X155259569Y-102899285D01*
X155259569Y-102899285D02*
X155290521Y-102868333D01*
X155290521Y-102868333D02*
X155321473Y-102806428D01*
X155321473Y-102806428D02*
X155321473Y-102682619D01*
X155321473Y-102682619D02*
X155352426Y-102620714D01*
X155352426Y-102620714D02*
X155383378Y-102589761D01*
X155383378Y-102589761D02*
X155445283Y-102558809D01*
X155445283Y-102558809D02*
X155569092Y-102558809D01*
X155569092Y-102558809D02*
X155630997Y-102589761D01*
X155630997Y-102589761D02*
X155661950Y-102620714D01*
X155661950Y-102620714D02*
X155692902Y-102682619D01*
X155692902Y-102682619D02*
X155692902Y-102806428D01*
X155692902Y-102806428D02*
X155661950Y-102868333D01*
X155661950Y-102868333D02*
X155630997Y-102899285D01*
X155630997Y-102899285D02*
X155569092Y-102930238D01*
X155569092Y-102930238D02*
X155445283Y-102930238D01*
X155445283Y-102930238D02*
X155383378Y-102899285D01*
X155383378Y-102899285D02*
X155352426Y-102868333D01*
X155352426Y-102868333D02*
X155321473Y-102806428D01*
X139527857Y-80830997D02*
X139558809Y-80861950D01*
X139558809Y-80861950D02*
X139651667Y-80892902D01*
X139651667Y-80892902D02*
X139713571Y-80892902D01*
X139713571Y-80892902D02*
X139806428Y-80861950D01*
X139806428Y-80861950D02*
X139868333Y-80800045D01*
X139868333Y-80800045D02*
X139899286Y-80738140D01*
X139899286Y-80738140D02*
X139930238Y-80614330D01*
X139930238Y-80614330D02*
X139930238Y-80521473D01*
X139930238Y-80521473D02*
X139899286Y-80397664D01*
X139899286Y-80397664D02*
X139868333Y-80335759D01*
X139868333Y-80335759D02*
X139806428Y-80273854D01*
X139806428Y-80273854D02*
X139713571Y-80242902D01*
X139713571Y-80242902D02*
X139651667Y-80242902D01*
X139651667Y-80242902D02*
X139558809Y-80273854D01*
X139558809Y-80273854D02*
X139527857Y-80304807D01*
X138908809Y-80892902D02*
X139280238Y-80892902D01*
X139094524Y-80892902D02*
X139094524Y-80242902D01*
X139094524Y-80242902D02*
X139156428Y-80335759D01*
X139156428Y-80335759D02*
X139218333Y-80397664D01*
X139218333Y-80397664D02*
X139280238Y-80428616D01*
X138692142Y-80242902D02*
X138258809Y-80242902D01*
X138258809Y-80242902D02*
X138537380Y-80892902D01*
X142998333Y-65630997D02*
X143029285Y-65661950D01*
X143029285Y-65661950D02*
X143122143Y-65692902D01*
X143122143Y-65692902D02*
X143184047Y-65692902D01*
X143184047Y-65692902D02*
X143276904Y-65661950D01*
X143276904Y-65661950D02*
X143338809Y-65600045D01*
X143338809Y-65600045D02*
X143369762Y-65538140D01*
X143369762Y-65538140D02*
X143400714Y-65414330D01*
X143400714Y-65414330D02*
X143400714Y-65321473D01*
X143400714Y-65321473D02*
X143369762Y-65197664D01*
X143369762Y-65197664D02*
X143338809Y-65135759D01*
X143338809Y-65135759D02*
X143276904Y-65073854D01*
X143276904Y-65073854D02*
X143184047Y-65042902D01*
X143184047Y-65042902D02*
X143122143Y-65042902D01*
X143122143Y-65042902D02*
X143029285Y-65073854D01*
X143029285Y-65073854D02*
X142998333Y-65104807D01*
X142688809Y-65692902D02*
X142565000Y-65692902D01*
X142565000Y-65692902D02*
X142503095Y-65661950D01*
X142503095Y-65661950D02*
X142472143Y-65630997D01*
X142472143Y-65630997D02*
X142410238Y-65538140D01*
X142410238Y-65538140D02*
X142379285Y-65414330D01*
X142379285Y-65414330D02*
X142379285Y-65166711D01*
X142379285Y-65166711D02*
X142410238Y-65104807D01*
X142410238Y-65104807D02*
X142441190Y-65073854D01*
X142441190Y-65073854D02*
X142503095Y-65042902D01*
X142503095Y-65042902D02*
X142626904Y-65042902D01*
X142626904Y-65042902D02*
X142688809Y-65073854D01*
X142688809Y-65073854D02*
X142719762Y-65104807D01*
X142719762Y-65104807D02*
X142750714Y-65166711D01*
X142750714Y-65166711D02*
X142750714Y-65321473D01*
X142750714Y-65321473D02*
X142719762Y-65383378D01*
X142719762Y-65383378D02*
X142688809Y-65414330D01*
X142688809Y-65414330D02*
X142626904Y-65445283D01*
X142626904Y-65445283D02*
X142503095Y-65445283D01*
X142503095Y-65445283D02*
X142441190Y-65414330D01*
X142441190Y-65414330D02*
X142410238Y-65383378D01*
X142410238Y-65383378D02*
X142379285Y-65321473D01*
X153630997Y-62692142D02*
X153661950Y-62661190D01*
X153661950Y-62661190D02*
X153692902Y-62568332D01*
X153692902Y-62568332D02*
X153692902Y-62506428D01*
X153692902Y-62506428D02*
X153661950Y-62413571D01*
X153661950Y-62413571D02*
X153600045Y-62351666D01*
X153600045Y-62351666D02*
X153538140Y-62320713D01*
X153538140Y-62320713D02*
X153414330Y-62289761D01*
X153414330Y-62289761D02*
X153321473Y-62289761D01*
X153321473Y-62289761D02*
X153197664Y-62320713D01*
X153197664Y-62320713D02*
X153135759Y-62351666D01*
X153135759Y-62351666D02*
X153073854Y-62413571D01*
X153073854Y-62413571D02*
X153042902Y-62506428D01*
X153042902Y-62506428D02*
X153042902Y-62568332D01*
X153042902Y-62568332D02*
X153073854Y-62661190D01*
X153073854Y-62661190D02*
X153104807Y-62692142D01*
X153692902Y-63311190D02*
X153692902Y-62939761D01*
X153692902Y-63125475D02*
X153042902Y-63125475D01*
X153042902Y-63125475D02*
X153135759Y-63063571D01*
X153135759Y-63063571D02*
X153197664Y-63001666D01*
X153197664Y-63001666D02*
X153228616Y-62939761D01*
X153259569Y-63868333D02*
X153692902Y-63868333D01*
X153011950Y-63713571D02*
X153476235Y-63558809D01*
X153476235Y-63558809D02*
X153476235Y-63961190D01*
X157630997Y-81001666D02*
X157661950Y-80970714D01*
X157661950Y-80970714D02*
X157692902Y-80877856D01*
X157692902Y-80877856D02*
X157692902Y-80815952D01*
X157692902Y-80815952D02*
X157661950Y-80723095D01*
X157661950Y-80723095D02*
X157600045Y-80661190D01*
X157600045Y-80661190D02*
X157538140Y-80630237D01*
X157538140Y-80630237D02*
X157414330Y-80599285D01*
X157414330Y-80599285D02*
X157321473Y-80599285D01*
X157321473Y-80599285D02*
X157197664Y-80630237D01*
X157197664Y-80630237D02*
X157135759Y-80661190D01*
X157135759Y-80661190D02*
X157073854Y-80723095D01*
X157073854Y-80723095D02*
X157042902Y-80815952D01*
X157042902Y-80815952D02*
X157042902Y-80877856D01*
X157042902Y-80877856D02*
X157073854Y-80970714D01*
X157073854Y-80970714D02*
X157104807Y-81001666D01*
X157042902Y-81218333D02*
X157042902Y-81651666D01*
X157042902Y-81651666D02*
X157692902Y-81373095D01*
X155830997Y-99472142D02*
X155861950Y-99441190D01*
X155861950Y-99441190D02*
X155892902Y-99348332D01*
X155892902Y-99348332D02*
X155892902Y-99286428D01*
X155892902Y-99286428D02*
X155861950Y-99193571D01*
X155861950Y-99193571D02*
X155800045Y-99131666D01*
X155800045Y-99131666D02*
X155738140Y-99100713D01*
X155738140Y-99100713D02*
X155614330Y-99069761D01*
X155614330Y-99069761D02*
X155521473Y-99069761D01*
X155521473Y-99069761D02*
X155397664Y-99100713D01*
X155397664Y-99100713D02*
X155335759Y-99131666D01*
X155335759Y-99131666D02*
X155273854Y-99193571D01*
X155273854Y-99193571D02*
X155242902Y-99286428D01*
X155242902Y-99286428D02*
X155242902Y-99348332D01*
X155242902Y-99348332D02*
X155273854Y-99441190D01*
X155273854Y-99441190D02*
X155304807Y-99472142D01*
X155892902Y-100091190D02*
X155892902Y-99719761D01*
X155892902Y-99905475D02*
X155242902Y-99905475D01*
X155242902Y-99905475D02*
X155335759Y-99843571D01*
X155335759Y-99843571D02*
X155397664Y-99781666D01*
X155397664Y-99781666D02*
X155428616Y-99719761D01*
X155892902Y-100710238D02*
X155892902Y-100338809D01*
X155892902Y-100524523D02*
X155242902Y-100524523D01*
X155242902Y-100524523D02*
X155335759Y-100462619D01*
X155335759Y-100462619D02*
X155397664Y-100400714D01*
X155397664Y-100400714D02*
X155428616Y-100338809D01*
X156527857Y-87830997D02*
X156558809Y-87861950D01*
X156558809Y-87861950D02*
X156651667Y-87892902D01*
X156651667Y-87892902D02*
X156713571Y-87892902D01*
X156713571Y-87892902D02*
X156806428Y-87861950D01*
X156806428Y-87861950D02*
X156868333Y-87800045D01*
X156868333Y-87800045D02*
X156899286Y-87738140D01*
X156899286Y-87738140D02*
X156930238Y-87614330D01*
X156930238Y-87614330D02*
X156930238Y-87521473D01*
X156930238Y-87521473D02*
X156899286Y-87397664D01*
X156899286Y-87397664D02*
X156868333Y-87335759D01*
X156868333Y-87335759D02*
X156806428Y-87273854D01*
X156806428Y-87273854D02*
X156713571Y-87242902D01*
X156713571Y-87242902D02*
X156651667Y-87242902D01*
X156651667Y-87242902D02*
X156558809Y-87273854D01*
X156558809Y-87273854D02*
X156527857Y-87304807D01*
X156280238Y-87304807D02*
X156249286Y-87273854D01*
X156249286Y-87273854D02*
X156187381Y-87242902D01*
X156187381Y-87242902D02*
X156032619Y-87242902D01*
X156032619Y-87242902D02*
X155970714Y-87273854D01*
X155970714Y-87273854D02*
X155939762Y-87304807D01*
X155939762Y-87304807D02*
X155908809Y-87366711D01*
X155908809Y-87366711D02*
X155908809Y-87428616D01*
X155908809Y-87428616D02*
X155939762Y-87521473D01*
X155939762Y-87521473D02*
X156311190Y-87892902D01*
X156311190Y-87892902D02*
X155908809Y-87892902D01*
X155289761Y-87892902D02*
X155661190Y-87892902D01*
X155475476Y-87892902D02*
X155475476Y-87242902D01*
X155475476Y-87242902D02*
X155537380Y-87335759D01*
X155537380Y-87335759D02*
X155599285Y-87397664D01*
X155599285Y-87397664D02*
X155661190Y-87428616D01*
X165998333Y-69630997D02*
X166029285Y-69661950D01*
X166029285Y-69661950D02*
X166122143Y-69692902D01*
X166122143Y-69692902D02*
X166184047Y-69692902D01*
X166184047Y-69692902D02*
X166276904Y-69661950D01*
X166276904Y-69661950D02*
X166338809Y-69600045D01*
X166338809Y-69600045D02*
X166369762Y-69538140D01*
X166369762Y-69538140D02*
X166400714Y-69414330D01*
X166400714Y-69414330D02*
X166400714Y-69321473D01*
X166400714Y-69321473D02*
X166369762Y-69197664D01*
X166369762Y-69197664D02*
X166338809Y-69135759D01*
X166338809Y-69135759D02*
X166276904Y-69073854D01*
X166276904Y-69073854D02*
X166184047Y-69042902D01*
X166184047Y-69042902D02*
X166122143Y-69042902D01*
X166122143Y-69042902D02*
X166029285Y-69073854D01*
X166029285Y-69073854D02*
X165998333Y-69104807D01*
X165379285Y-69692902D02*
X165750714Y-69692902D01*
X165565000Y-69692902D02*
X165565000Y-69042902D01*
X165565000Y-69042902D02*
X165626904Y-69135759D01*
X165626904Y-69135759D02*
X165688809Y-69197664D01*
X165688809Y-69197664D02*
X165750714Y-69228616D01*
X139457857Y-89032902D02*
X139674524Y-88723378D01*
X139829286Y-89032902D02*
X139829286Y-88382902D01*
X139829286Y-88382902D02*
X139581667Y-88382902D01*
X139581667Y-88382902D02*
X139519762Y-88413854D01*
X139519762Y-88413854D02*
X139488809Y-88444807D01*
X139488809Y-88444807D02*
X139457857Y-88506711D01*
X139457857Y-88506711D02*
X139457857Y-88599569D01*
X139457857Y-88599569D02*
X139488809Y-88661473D01*
X139488809Y-88661473D02*
X139519762Y-88692426D01*
X139519762Y-88692426D02*
X139581667Y-88723378D01*
X139581667Y-88723378D02*
X139829286Y-88723378D01*
X138838809Y-89032902D02*
X139210238Y-89032902D01*
X139024524Y-89032902D02*
X139024524Y-88382902D01*
X139024524Y-88382902D02*
X139086428Y-88475759D01*
X139086428Y-88475759D02*
X139148333Y-88537664D01*
X139148333Y-88537664D02*
X139210238Y-88568616D01*
X138219761Y-89032902D02*
X138591190Y-89032902D01*
X138405476Y-89032902D02*
X138405476Y-88382902D01*
X138405476Y-88382902D02*
X138467380Y-88475759D01*
X138467380Y-88475759D02*
X138529285Y-88537664D01*
X138529285Y-88537664D02*
X138591190Y-88568616D01*
X136080819Y-84254095D02*
X136890342Y-84254095D01*
X136890342Y-84254095D02*
X136985580Y-84301714D01*
X136985580Y-84301714D02*
X137033200Y-84349333D01*
X137033200Y-84349333D02*
X137080819Y-84444571D01*
X137080819Y-84444571D02*
X137080819Y-84635047D01*
X137080819Y-84635047D02*
X137033200Y-84730285D01*
X137033200Y-84730285D02*
X136985580Y-84777904D01*
X136985580Y-84777904D02*
X136890342Y-84825523D01*
X136890342Y-84825523D02*
X136080819Y-84825523D01*
X136080819Y-85777904D02*
X136080819Y-85301714D01*
X136080819Y-85301714D02*
X136557009Y-85254095D01*
X136557009Y-85254095D02*
X136509390Y-85301714D01*
X136509390Y-85301714D02*
X136461771Y-85396952D01*
X136461771Y-85396952D02*
X136461771Y-85635047D01*
X136461771Y-85635047D02*
X136509390Y-85730285D01*
X136509390Y-85730285D02*
X136557009Y-85777904D01*
X136557009Y-85777904D02*
X136652247Y-85825523D01*
X136652247Y-85825523D02*
X136890342Y-85825523D01*
X136890342Y-85825523D02*
X136985580Y-85777904D01*
X136985580Y-85777904D02*
X137033200Y-85730285D01*
X137033200Y-85730285D02*
X137080819Y-85635047D01*
X137080819Y-85635047D02*
X137080819Y-85396952D01*
X137080819Y-85396952D02*
X137033200Y-85301714D01*
X137033200Y-85301714D02*
X136985580Y-85254095D01*
X147272857Y-90032902D02*
X147489524Y-89723378D01*
X147644286Y-90032902D02*
X147644286Y-89382902D01*
X147644286Y-89382902D02*
X147396667Y-89382902D01*
X147396667Y-89382902D02*
X147334762Y-89413854D01*
X147334762Y-89413854D02*
X147303809Y-89444807D01*
X147303809Y-89444807D02*
X147272857Y-89506711D01*
X147272857Y-89506711D02*
X147272857Y-89599569D01*
X147272857Y-89599569D02*
X147303809Y-89661473D01*
X147303809Y-89661473D02*
X147334762Y-89692426D01*
X147334762Y-89692426D02*
X147396667Y-89723378D01*
X147396667Y-89723378D02*
X147644286Y-89723378D01*
X146653809Y-90032902D02*
X147025238Y-90032902D01*
X146839524Y-90032902D02*
X146839524Y-89382902D01*
X146839524Y-89382902D02*
X146901428Y-89475759D01*
X146901428Y-89475759D02*
X146963333Y-89537664D01*
X146963333Y-89537664D02*
X147025238Y-89568616D01*
X146065714Y-89382902D02*
X146375238Y-89382902D01*
X146375238Y-89382902D02*
X146406190Y-89692426D01*
X146406190Y-89692426D02*
X146375238Y-89661473D01*
X146375238Y-89661473D02*
X146313333Y-89630521D01*
X146313333Y-89630521D02*
X146158571Y-89630521D01*
X146158571Y-89630521D02*
X146096666Y-89661473D01*
X146096666Y-89661473D02*
X146065714Y-89692426D01*
X146065714Y-89692426D02*
X146034761Y-89754330D01*
X146034761Y-89754330D02*
X146034761Y-89909092D01*
X146034761Y-89909092D02*
X146065714Y-89970997D01*
X146065714Y-89970997D02*
X146096666Y-90001950D01*
X146096666Y-90001950D02*
X146158571Y-90032902D01*
X146158571Y-90032902D02*
X146313333Y-90032902D01*
X146313333Y-90032902D02*
X146375238Y-90001950D01*
X146375238Y-90001950D02*
X146406190Y-89970997D01*
X172307857Y-88630997D02*
X172338809Y-88661950D01*
X172338809Y-88661950D02*
X172431667Y-88692902D01*
X172431667Y-88692902D02*
X172493571Y-88692902D01*
X172493571Y-88692902D02*
X172586428Y-88661950D01*
X172586428Y-88661950D02*
X172648333Y-88600045D01*
X172648333Y-88600045D02*
X172679286Y-88538140D01*
X172679286Y-88538140D02*
X172710238Y-88414330D01*
X172710238Y-88414330D02*
X172710238Y-88321473D01*
X172710238Y-88321473D02*
X172679286Y-88197664D01*
X172679286Y-88197664D02*
X172648333Y-88135759D01*
X172648333Y-88135759D02*
X172586428Y-88073854D01*
X172586428Y-88073854D02*
X172493571Y-88042902D01*
X172493571Y-88042902D02*
X172431667Y-88042902D01*
X172431667Y-88042902D02*
X172338809Y-88073854D01*
X172338809Y-88073854D02*
X172307857Y-88104807D01*
X171688809Y-88692902D02*
X172060238Y-88692902D01*
X171874524Y-88692902D02*
X171874524Y-88042902D01*
X171874524Y-88042902D02*
X171936428Y-88135759D01*
X171936428Y-88135759D02*
X171998333Y-88197664D01*
X171998333Y-88197664D02*
X172060238Y-88228616D01*
X171131666Y-88042902D02*
X171255476Y-88042902D01*
X171255476Y-88042902D02*
X171317380Y-88073854D01*
X171317380Y-88073854D02*
X171348333Y-88104807D01*
X171348333Y-88104807D02*
X171410238Y-88197664D01*
X171410238Y-88197664D02*
X171441190Y-88321473D01*
X171441190Y-88321473D02*
X171441190Y-88569092D01*
X171441190Y-88569092D02*
X171410238Y-88630997D01*
X171410238Y-88630997D02*
X171379285Y-88661950D01*
X171379285Y-88661950D02*
X171317380Y-88692902D01*
X171317380Y-88692902D02*
X171193571Y-88692902D01*
X171193571Y-88692902D02*
X171131666Y-88661950D01*
X171131666Y-88661950D02*
X171100714Y-88630997D01*
X171100714Y-88630997D02*
X171069761Y-88569092D01*
X171069761Y-88569092D02*
X171069761Y-88414330D01*
X171069761Y-88414330D02*
X171100714Y-88352426D01*
X171100714Y-88352426D02*
X171131666Y-88321473D01*
X171131666Y-88321473D02*
X171193571Y-88290521D01*
X171193571Y-88290521D02*
X171317380Y-88290521D01*
X171317380Y-88290521D02*
X171379285Y-88321473D01*
X171379285Y-88321473D02*
X171410238Y-88352426D01*
X171410238Y-88352426D02*
X171441190Y-88414330D01*
X170527857Y-85830997D02*
X170558809Y-85861950D01*
X170558809Y-85861950D02*
X170651667Y-85892902D01*
X170651667Y-85892902D02*
X170713571Y-85892902D01*
X170713571Y-85892902D02*
X170806428Y-85861950D01*
X170806428Y-85861950D02*
X170868333Y-85800045D01*
X170868333Y-85800045D02*
X170899286Y-85738140D01*
X170899286Y-85738140D02*
X170930238Y-85614330D01*
X170930238Y-85614330D02*
X170930238Y-85521473D01*
X170930238Y-85521473D02*
X170899286Y-85397664D01*
X170899286Y-85397664D02*
X170868333Y-85335759D01*
X170868333Y-85335759D02*
X170806428Y-85273854D01*
X170806428Y-85273854D02*
X170713571Y-85242902D01*
X170713571Y-85242902D02*
X170651667Y-85242902D01*
X170651667Y-85242902D02*
X170558809Y-85273854D01*
X170558809Y-85273854D02*
X170527857Y-85304807D01*
X169908809Y-85892902D02*
X170280238Y-85892902D01*
X170094524Y-85892902D02*
X170094524Y-85242902D01*
X170094524Y-85242902D02*
X170156428Y-85335759D01*
X170156428Y-85335759D02*
X170218333Y-85397664D01*
X170218333Y-85397664D02*
X170280238Y-85428616D01*
X169661190Y-85304807D02*
X169630238Y-85273854D01*
X169630238Y-85273854D02*
X169568333Y-85242902D01*
X169568333Y-85242902D02*
X169413571Y-85242902D01*
X169413571Y-85242902D02*
X169351666Y-85273854D01*
X169351666Y-85273854D02*
X169320714Y-85304807D01*
X169320714Y-85304807D02*
X169289761Y-85366711D01*
X169289761Y-85366711D02*
X169289761Y-85428616D01*
X169289761Y-85428616D02*
X169320714Y-85521473D01*
X169320714Y-85521473D02*
X169692142Y-85892902D01*
X169692142Y-85892902D02*
X169289761Y-85892902D01*
X143630997Y-67692142D02*
X143661950Y-67661190D01*
X143661950Y-67661190D02*
X143692902Y-67568332D01*
X143692902Y-67568332D02*
X143692902Y-67506428D01*
X143692902Y-67506428D02*
X143661950Y-67413571D01*
X143661950Y-67413571D02*
X143600045Y-67351666D01*
X143600045Y-67351666D02*
X143538140Y-67320713D01*
X143538140Y-67320713D02*
X143414330Y-67289761D01*
X143414330Y-67289761D02*
X143321473Y-67289761D01*
X143321473Y-67289761D02*
X143197664Y-67320713D01*
X143197664Y-67320713D02*
X143135759Y-67351666D01*
X143135759Y-67351666D02*
X143073854Y-67413571D01*
X143073854Y-67413571D02*
X143042902Y-67506428D01*
X143042902Y-67506428D02*
X143042902Y-67568332D01*
X143042902Y-67568332D02*
X143073854Y-67661190D01*
X143073854Y-67661190D02*
X143104807Y-67692142D01*
X143104807Y-67939761D02*
X143073854Y-67970713D01*
X143073854Y-67970713D02*
X143042902Y-68032618D01*
X143042902Y-68032618D02*
X143042902Y-68187380D01*
X143042902Y-68187380D02*
X143073854Y-68249285D01*
X143073854Y-68249285D02*
X143104807Y-68280237D01*
X143104807Y-68280237D02*
X143166711Y-68311190D01*
X143166711Y-68311190D02*
X143228616Y-68311190D01*
X143228616Y-68311190D02*
X143321473Y-68280237D01*
X143321473Y-68280237D02*
X143692902Y-67908809D01*
X143692902Y-67908809D02*
X143692902Y-68311190D01*
X143042902Y-68527857D02*
X143042902Y-68930238D01*
X143042902Y-68930238D02*
X143290521Y-68713571D01*
X143290521Y-68713571D02*
X143290521Y-68806428D01*
X143290521Y-68806428D02*
X143321473Y-68868333D01*
X143321473Y-68868333D02*
X143352426Y-68899285D01*
X143352426Y-68899285D02*
X143414330Y-68930238D01*
X143414330Y-68930238D02*
X143569092Y-68930238D01*
X143569092Y-68930238D02*
X143630997Y-68899285D01*
X143630997Y-68899285D02*
X143661950Y-68868333D01*
X143661950Y-68868333D02*
X143692902Y-68806428D01*
X143692902Y-68806428D02*
X143692902Y-68620714D01*
X143692902Y-68620714D02*
X143661950Y-68558809D01*
X143661950Y-68558809D02*
X143630997Y-68527857D01*
X141527857Y-62830997D02*
X141558809Y-62861950D01*
X141558809Y-62861950D02*
X141651667Y-62892902D01*
X141651667Y-62892902D02*
X141713571Y-62892902D01*
X141713571Y-62892902D02*
X141806428Y-62861950D01*
X141806428Y-62861950D02*
X141868333Y-62800045D01*
X141868333Y-62800045D02*
X141899286Y-62738140D01*
X141899286Y-62738140D02*
X141930238Y-62614330D01*
X141930238Y-62614330D02*
X141930238Y-62521473D01*
X141930238Y-62521473D02*
X141899286Y-62397664D01*
X141899286Y-62397664D02*
X141868333Y-62335759D01*
X141868333Y-62335759D02*
X141806428Y-62273854D01*
X141806428Y-62273854D02*
X141713571Y-62242902D01*
X141713571Y-62242902D02*
X141651667Y-62242902D01*
X141651667Y-62242902D02*
X141558809Y-62273854D01*
X141558809Y-62273854D02*
X141527857Y-62304807D01*
X141280238Y-62304807D02*
X141249286Y-62273854D01*
X141249286Y-62273854D02*
X141187381Y-62242902D01*
X141187381Y-62242902D02*
X141032619Y-62242902D01*
X141032619Y-62242902D02*
X140970714Y-62273854D01*
X140970714Y-62273854D02*
X140939762Y-62304807D01*
X140939762Y-62304807D02*
X140908809Y-62366711D01*
X140908809Y-62366711D02*
X140908809Y-62428616D01*
X140908809Y-62428616D02*
X140939762Y-62521473D01*
X140939762Y-62521473D02*
X141311190Y-62892902D01*
X141311190Y-62892902D02*
X140908809Y-62892902D01*
X140506428Y-62242902D02*
X140444523Y-62242902D01*
X140444523Y-62242902D02*
X140382619Y-62273854D01*
X140382619Y-62273854D02*
X140351666Y-62304807D01*
X140351666Y-62304807D02*
X140320714Y-62366711D01*
X140320714Y-62366711D02*
X140289761Y-62490521D01*
X140289761Y-62490521D02*
X140289761Y-62645283D01*
X140289761Y-62645283D02*
X140320714Y-62769092D01*
X140320714Y-62769092D02*
X140351666Y-62830997D01*
X140351666Y-62830997D02*
X140382619Y-62861950D01*
X140382619Y-62861950D02*
X140444523Y-62892902D01*
X140444523Y-62892902D02*
X140506428Y-62892902D01*
X140506428Y-62892902D02*
X140568333Y-62861950D01*
X140568333Y-62861950D02*
X140599285Y-62830997D01*
X140599285Y-62830997D02*
X140630238Y-62769092D01*
X140630238Y-62769092D02*
X140661190Y-62645283D01*
X140661190Y-62645283D02*
X140661190Y-62490521D01*
X140661190Y-62490521D02*
X140630238Y-62366711D01*
X140630238Y-62366711D02*
X140599285Y-62304807D01*
X140599285Y-62304807D02*
X140568333Y-62273854D01*
X140568333Y-62273854D02*
X140506428Y-62242902D01*
X149830997Y-99472142D02*
X149861950Y-99441190D01*
X149861950Y-99441190D02*
X149892902Y-99348332D01*
X149892902Y-99348332D02*
X149892902Y-99286428D01*
X149892902Y-99286428D02*
X149861950Y-99193571D01*
X149861950Y-99193571D02*
X149800045Y-99131666D01*
X149800045Y-99131666D02*
X149738140Y-99100713D01*
X149738140Y-99100713D02*
X149614330Y-99069761D01*
X149614330Y-99069761D02*
X149521473Y-99069761D01*
X149521473Y-99069761D02*
X149397664Y-99100713D01*
X149397664Y-99100713D02*
X149335759Y-99131666D01*
X149335759Y-99131666D02*
X149273854Y-99193571D01*
X149273854Y-99193571D02*
X149242902Y-99286428D01*
X149242902Y-99286428D02*
X149242902Y-99348332D01*
X149242902Y-99348332D02*
X149273854Y-99441190D01*
X149273854Y-99441190D02*
X149304807Y-99472142D01*
X149892902Y-100091190D02*
X149892902Y-99719761D01*
X149892902Y-99905475D02*
X149242902Y-99905475D01*
X149242902Y-99905475D02*
X149335759Y-99843571D01*
X149335759Y-99843571D02*
X149397664Y-99781666D01*
X149397664Y-99781666D02*
X149428616Y-99719761D01*
X149242902Y-100493571D02*
X149242902Y-100555476D01*
X149242902Y-100555476D02*
X149273854Y-100617380D01*
X149273854Y-100617380D02*
X149304807Y-100648333D01*
X149304807Y-100648333D02*
X149366711Y-100679285D01*
X149366711Y-100679285D02*
X149490521Y-100710238D01*
X149490521Y-100710238D02*
X149645283Y-100710238D01*
X149645283Y-100710238D02*
X149769092Y-100679285D01*
X149769092Y-100679285D02*
X149830997Y-100648333D01*
X149830997Y-100648333D02*
X149861950Y-100617380D01*
X149861950Y-100617380D02*
X149892902Y-100555476D01*
X149892902Y-100555476D02*
X149892902Y-100493571D01*
X149892902Y-100493571D02*
X149861950Y-100431666D01*
X149861950Y-100431666D02*
X149830997Y-100400714D01*
X149830997Y-100400714D02*
X149769092Y-100369761D01*
X149769092Y-100369761D02*
X149645283Y-100338809D01*
X149645283Y-100338809D02*
X149490521Y-100338809D01*
X149490521Y-100338809D02*
X149366711Y-100369761D01*
X149366711Y-100369761D02*
X149304807Y-100400714D01*
X149304807Y-100400714D02*
X149273854Y-100431666D01*
X149273854Y-100431666D02*
X149242902Y-100493571D01*
X145552902Y-96582142D02*
X145243378Y-96365475D01*
X145552902Y-96210713D02*
X144902902Y-96210713D01*
X144902902Y-96210713D02*
X144902902Y-96458332D01*
X144902902Y-96458332D02*
X144933854Y-96520237D01*
X144933854Y-96520237D02*
X144964807Y-96551190D01*
X144964807Y-96551190D02*
X145026711Y-96582142D01*
X145026711Y-96582142D02*
X145119569Y-96582142D01*
X145119569Y-96582142D02*
X145181473Y-96551190D01*
X145181473Y-96551190D02*
X145212426Y-96520237D01*
X145212426Y-96520237D02*
X145243378Y-96458332D01*
X145243378Y-96458332D02*
X145243378Y-96210713D01*
X145552902Y-97201190D02*
X145552902Y-96829761D01*
X145552902Y-97015475D02*
X144902902Y-97015475D01*
X144902902Y-97015475D02*
X144995759Y-96953571D01*
X144995759Y-96953571D02*
X145057664Y-96891666D01*
X145057664Y-96891666D02*
X145088616Y-96829761D01*
X144902902Y-97417857D02*
X144902902Y-97820238D01*
X144902902Y-97820238D02*
X145150521Y-97603571D01*
X145150521Y-97603571D02*
X145150521Y-97696428D01*
X145150521Y-97696428D02*
X145181473Y-97758333D01*
X145181473Y-97758333D02*
X145212426Y-97789285D01*
X145212426Y-97789285D02*
X145274330Y-97820238D01*
X145274330Y-97820238D02*
X145429092Y-97820238D01*
X145429092Y-97820238D02*
X145490997Y-97789285D01*
X145490997Y-97789285D02*
X145521950Y-97758333D01*
X145521950Y-97758333D02*
X145552902Y-97696428D01*
X145552902Y-97696428D02*
X145552902Y-97510714D01*
X145552902Y-97510714D02*
X145521950Y-97448809D01*
X145521950Y-97448809D02*
X145490997Y-97417857D01*
X142307857Y-87630997D02*
X142338809Y-87661950D01*
X142338809Y-87661950D02*
X142431667Y-87692902D01*
X142431667Y-87692902D02*
X142493571Y-87692902D01*
X142493571Y-87692902D02*
X142586428Y-87661950D01*
X142586428Y-87661950D02*
X142648333Y-87600045D01*
X142648333Y-87600045D02*
X142679286Y-87538140D01*
X142679286Y-87538140D02*
X142710238Y-87414330D01*
X142710238Y-87414330D02*
X142710238Y-87321473D01*
X142710238Y-87321473D02*
X142679286Y-87197664D01*
X142679286Y-87197664D02*
X142648333Y-87135759D01*
X142648333Y-87135759D02*
X142586428Y-87073854D01*
X142586428Y-87073854D02*
X142493571Y-87042902D01*
X142493571Y-87042902D02*
X142431667Y-87042902D01*
X142431667Y-87042902D02*
X142338809Y-87073854D01*
X142338809Y-87073854D02*
X142307857Y-87104807D01*
X141688809Y-87692902D02*
X142060238Y-87692902D01*
X141874524Y-87692902D02*
X141874524Y-87042902D01*
X141874524Y-87042902D02*
X141936428Y-87135759D01*
X141936428Y-87135759D02*
X141998333Y-87197664D01*
X141998333Y-87197664D02*
X142060238Y-87228616D01*
X141379285Y-87692902D02*
X141255476Y-87692902D01*
X141255476Y-87692902D02*
X141193571Y-87661950D01*
X141193571Y-87661950D02*
X141162619Y-87630997D01*
X141162619Y-87630997D02*
X141100714Y-87538140D01*
X141100714Y-87538140D02*
X141069761Y-87414330D01*
X141069761Y-87414330D02*
X141069761Y-87166711D01*
X141069761Y-87166711D02*
X141100714Y-87104807D01*
X141100714Y-87104807D02*
X141131666Y-87073854D01*
X141131666Y-87073854D02*
X141193571Y-87042902D01*
X141193571Y-87042902D02*
X141317380Y-87042902D01*
X141317380Y-87042902D02*
X141379285Y-87073854D01*
X141379285Y-87073854D02*
X141410238Y-87104807D01*
X141410238Y-87104807D02*
X141441190Y-87166711D01*
X141441190Y-87166711D02*
X141441190Y-87321473D01*
X141441190Y-87321473D02*
X141410238Y-87383378D01*
X141410238Y-87383378D02*
X141379285Y-87414330D01*
X141379285Y-87414330D02*
X141317380Y-87445283D01*
X141317380Y-87445283D02*
X141193571Y-87445283D01*
X141193571Y-87445283D02*
X141131666Y-87414330D01*
X141131666Y-87414330D02*
X141100714Y-87383378D01*
X141100714Y-87383378D02*
X141069761Y-87321473D01*
X115620819Y-75834095D02*
X116430342Y-75834095D01*
X116430342Y-75834095D02*
X116525580Y-75881714D01*
X116525580Y-75881714D02*
X116573200Y-75929333D01*
X116573200Y-75929333D02*
X116620819Y-76024571D01*
X116620819Y-76024571D02*
X116620819Y-76215047D01*
X116620819Y-76215047D02*
X116573200Y-76310285D01*
X116573200Y-76310285D02*
X116525580Y-76357904D01*
X116525580Y-76357904D02*
X116430342Y-76405523D01*
X116430342Y-76405523D02*
X115620819Y-76405523D01*
X115954152Y-77310285D02*
X116620819Y-77310285D01*
X115573200Y-77072190D02*
X116287485Y-76834095D01*
X116287485Y-76834095D02*
X116287485Y-77453142D01*
%TO.C,C18*%
X153250000Y-101150000D02*
X154750000Y-101150000D01*
X154750000Y-100850000D02*
X153250000Y-100850000D01*
%TO.C,C17*%
X137850000Y-81250000D02*
X137850000Y-82750000D01*
X138150000Y-82750000D02*
X138150000Y-81250000D01*
%TO.C,C9*%
X143850000Y-63250000D02*
X143850000Y-64750000D01*
X144150000Y-64750000D02*
X144150000Y-63250000D01*
%TO.C,C14*%
X151250000Y-62150000D02*
X152750000Y-62150000D01*
X152750000Y-61850000D02*
X151250000Y-61850000D01*
%TO.C,C7*%
X155250000Y-80150000D02*
X156750000Y-80150000D01*
X156750000Y-79850000D02*
X155250000Y-79850000D01*
%TO.C,C11*%
X156250000Y-101150000D02*
X157750000Y-101150000D01*
X157750000Y-100850000D02*
X156250000Y-100850000D01*
%TO.C,C21*%
X154850000Y-88250000D02*
X154850000Y-89750000D01*
X155150000Y-89750000D02*
X155150000Y-88250000D01*
D11*
%TO.C,J1*%
X116685142Y-110670000D02*
X116685142Y-113330000D01*
X116685142Y-110670000D02*
X177705142Y-110670000D01*
X116685142Y-113330000D02*
X177705142Y-113330000D01*
X177705142Y-110670000D02*
X177705142Y-113330000D01*
X178975142Y-110670000D02*
X180305142Y-110670000D01*
X180305142Y-110670000D02*
X180305142Y-112000000D01*
D10*
%TO.C,C1*%
X166850000Y-67250000D02*
X166850000Y-68750000D01*
X167150000Y-68750000D02*
X167150000Y-67250000D01*
%TO.C,R11*%
X138150000Y-86300000D02*
X139850000Y-86300000D01*
X139850000Y-87700000D02*
X138150000Y-87700000D01*
D12*
%TO.C,U5*%
X135610000Y-77396000D02*
X153390000Y-77396000D01*
X135610000Y-80444000D02*
X135610000Y-77396000D01*
X135610000Y-80444000D02*
X135610000Y-89588000D01*
X135610000Y-90604000D02*
X135610000Y-89588000D01*
X153390000Y-77396000D02*
X153390000Y-80444000D01*
X153390000Y-80444000D02*
X135610000Y-80444000D01*
X153390000Y-89588000D02*
X153390000Y-80444000D01*
X153390000Y-89588000D02*
X153390000Y-90604000D01*
X153390000Y-90604000D02*
X135610000Y-90604000D01*
D10*
%TO.C,R15*%
X145965000Y-87300000D02*
X147665000Y-87300000D01*
X147665000Y-88700000D02*
X145965000Y-88700000D01*
%TO.C,C16*%
X172850000Y-86250000D02*
X172850000Y-87750000D01*
X173150000Y-87750000D02*
X173150000Y-86250000D01*
%TO.C,C12*%
X168850000Y-86250000D02*
X168850000Y-87750000D01*
X169150000Y-87750000D02*
X169150000Y-86250000D01*
%TO.C,C23*%
X141250000Y-67150000D02*
X142750000Y-67150000D01*
X142750000Y-66850000D02*
X141250000Y-66850000D01*
%TO.C,C20*%
X139850000Y-63250000D02*
X139850000Y-64750000D01*
X140150000Y-64750000D02*
X140150000Y-63250000D01*
%TO.C,C10*%
X150250000Y-101150000D02*
X151750000Y-101150000D01*
X151750000Y-100850000D02*
X150250000Y-100850000D01*
%TO.C,R13*%
X146300000Y-97850000D02*
X146300000Y-96150000D01*
X147700000Y-96150000D02*
X147700000Y-97850000D01*
%TO.C,C19*%
X142850000Y-85250000D02*
X142850000Y-86750000D01*
X143150000Y-86750000D02*
X143150000Y-85250000D01*
D11*
%TO.C,J2*%
X116685142Y-52250000D02*
X116685142Y-54910000D01*
X116685142Y-52250000D02*
X177705142Y-52250000D01*
X116685142Y-54910000D02*
X177705142Y-54910000D01*
X177705142Y-52250000D02*
X177705142Y-54910000D01*
X178975142Y-52250000D02*
X180305142Y-52250000D01*
X180305142Y-52250000D02*
X180305142Y-53580000D01*
D12*
%TO.C,U4*%
X115150000Y-68976000D02*
X132930000Y-68976000D01*
X115150000Y-72024000D02*
X115150000Y-68976000D01*
X115150000Y-72024000D02*
X115150000Y-81168000D01*
X115150000Y-82184000D02*
X115150000Y-81168000D01*
X132930000Y-68976000D02*
X132930000Y-72024000D01*
X132930000Y-72024000D02*
X115150000Y-72024000D01*
X132930000Y-81168000D02*
X132930000Y-72024000D01*
X132930000Y-81168000D02*
X132930000Y-82184000D01*
X132930000Y-82184000D02*
X115150000Y-82184000D01*
%TD*%
M02*
