<?xml version="1.0" standalone="no"?>
 <!DOCTYPE svg PUBLIC "-//W3C//DTD SVG 1.1//EN" 
 "http://www.w3.org/Graphics/SVG/1.1/DTD/svg11.dtd"> 
<svg
  xmlns:svg="http://www.w3.org/2000/svg"
  xmlns="http://www.w3.org/2000/svg"
  xmlns:xlink="http://www.w3.org/1999/xlink"
  version="1.1"
  width="92.8878mm" height="75.8952mm" viewBox="0.0000 0.0000 92.8878 75.8952">
<title>SVG Image created as board-B_Silkscreen.svg date 2024/11/15 14:45:11 </title>
  <desc>Image generated by PCBNEW </desc>
<g style="fill:#000000; fill-opacity:1.0000;stroke:#000000; stroke-opacity:1.0000;
stroke-linecap:round; stroke-linejoin:round;"
 transform="translate(0 0) scale(1 1)">
</g>
<g style="fill:none; 
stroke:#000000; stroke-width:0.1500; stroke-opacity:1; 
stroke-linecap:round; stroke-linejoin:round;">
<text x="46.0353" y="16.6750"
textLength="2.2081" font-size="0.8667" lengthAdjust="spacingAndGlyphs"
text-anchor="middle" opacity="0" stroke-opacity="0">C25</text>
<g class="stroked-text"><desc>C25</desc>
<path d="M45.6175 16.5810
L45.5865 16.6120
" />
<path d="M45.5865 16.6120
L45.4937 16.6429
" />
<path d="M45.4937 16.6429
L45.4318 16.6429
" />
<path d="M45.4318 16.6429
L45.3389 16.6120
" />
<path d="M45.3389 16.6120
L45.2770 16.5500
" />
<path d="M45.2770 16.5500
L45.2460 16.4881
" />
<path d="M45.2460 16.4881
L45.2151 16.3643
" />
<path d="M45.2151 16.3643
L45.2151 16.2715
" />
<path d="M45.2151 16.2715
L45.2460 16.1477
" />
<path d="M45.2460 16.1477
L45.2770 16.0858
" />
<path d="M45.2770 16.0858
L45.3389 16.0239
" />
<path d="M45.3389 16.0239
L45.4318 15.9929
" />
<path d="M45.4318 15.9929
L45.4937 15.9929
" />
<path d="M45.4937 15.9929
L45.5865 16.0239
" />
<path d="M45.5865 16.0239
L45.6175 16.0548
" />
<path d="M45.8651 16.0548
L45.8960 16.0239
" />
<path d="M45.8960 16.0239
L45.9579 15.9929
" />
<path d="M45.9579 15.9929
L46.1127 15.9929
" />
<path d="M46.1127 15.9929
L46.1746 16.0239
" />
<path d="M46.1746 16.0239
L46.2056 16.0548
" />
<path d="M46.2056 16.0548
L46.2365 16.1167
" />
<path d="M46.2365 16.1167
L46.2365 16.1786
" />
<path d="M46.2365 16.1786
L46.2056 16.2715
" />
<path d="M46.2056 16.2715
L45.8341 16.6429
" />
<path d="M45.8341 16.6429
L46.2365 16.6429
" />
<path d="M46.8246 15.9929
L46.5151 15.9929
" />
<path d="M46.5151 15.9929
L46.4841 16.3024
" />
<path d="M46.4841 16.3024
L46.5151 16.2715
" />
<path d="M46.5151 16.2715
L46.5770 16.2405
" />
<path d="M46.5770 16.2405
L46.7318 16.2405
" />
<path d="M46.7318 16.2405
L46.7937 16.2715
" />
<path d="M46.7937 16.2715
L46.8246 16.3024
" />
<path d="M46.8246 16.3024
L46.8556 16.3643
" />
<path d="M46.8556 16.3643
L46.8556 16.5191
" />
<path d="M46.8556 16.5191
L46.8246 16.5810
" />
<path d="M46.8246 16.5810
L46.7937 16.6120
" />
<path d="M46.7937 16.6120
L46.7318 16.6429
" />
<path d="M46.7318 16.6429
L46.5770 16.6429
" />
<path d="M46.5770 16.6429
L46.5151 16.6120
" />
<path d="M46.5151 16.6120
L46.4841 16.5810
" />
</g><text x="41.6853" y="31.1750"
textLength="1.5890" font-size="0.8667" lengthAdjust="spacingAndGlyphs"
text-anchor="middle" opacity="0" stroke-opacity="0">C3</text>
<g class="stroked-text"><desc>C3</desc>
<path d="M41.5770 31.0810
L41.5460 31.1120
" />
<path d="M41.5460 31.1120
L41.4532 31.1429
" />
<path d="M41.4532 31.1429
L41.3913 31.1429
" />
<path d="M41.3913 31.1429
L41.2984 31.1120
" />
<path d="M41.2984 31.1120
L41.2365 31.0500
" />
<path d="M41.2365 31.0500
L41.2056 30.9881
" />
<path d="M41.2056 30.9881
L41.1746 30.8643
" />
<path d="M41.1746 30.8643
L41.1746 30.7715
" />
<path d="M41.1746 30.7715
L41.2056 30.6477
" />
<path d="M41.2056 30.6477
L41.2365 30.5858
" />
<path d="M41.2365 30.5858
L41.2984 30.5239
" />
<path d="M41.2984 30.5239
L41.3913 30.4929
" />
<path d="M41.3913 30.4929
L41.4532 30.4929
" />
<path d="M41.4532 30.4929
L41.5460 30.5239
" />
<path d="M41.5460 30.5239
L41.5770 30.5548
" />
<path d="M41.7937 30.4929
L42.1960 30.4929
" />
<path d="M42.1960 30.4929
L41.9794 30.7405
" />
<path d="M41.9794 30.7405
L42.0722 30.7405
" />
<path d="M42.0722 30.7405
L42.1341 30.7715
" />
<path d="M42.1341 30.7715
L42.1651 30.8024
" />
<path d="M42.1651 30.8024
L42.1960 30.8643
" />
<path d="M42.1960 30.8643
L42.1960 31.0191
" />
<path d="M42.1960 31.0191
L42.1651 31.0810
" />
<path d="M42.1651 31.0810
L42.1341 31.1120
" />
<path d="M42.1341 31.1120
L42.0722 31.1429
" />
<path d="M42.0722 31.1429
L41.8865 31.1429
" />
<path d="M41.8865 31.1429
L41.8246 31.1120
" />
<path d="M41.8246 31.1120
L41.7937 31.0810
" />
</g><text x="46.0353" y="18.9250"
textLength="2.2081" font-size="0.8667" lengthAdjust="spacingAndGlyphs"
text-anchor="middle" opacity="0" stroke-opacity="0">C24</text>
<g class="stroked-text"><desc>C24</desc>
<path d="M45.6175 18.8310
L45.5865 18.8620
" />
<path d="M45.5865 18.8620
L45.4937 18.8929
" />
<path d="M45.4937 18.8929
L45.4318 18.8929
" />
<path d="M45.4318 18.8929
L45.3389 18.8620
" />
<path d="M45.3389 18.8620
L45.2770 18.8000
" />
<path d="M45.2770 18.8000
L45.2460 18.7381
" />
<path d="M45.2460 18.7381
L45.2151 18.6143
" />
<path d="M45.2151 18.6143
L45.2151 18.5215
" />
<path d="M45.2151 18.5215
L45.2460 18.3977
" />
<path d="M45.2460 18.3977
L45.2770 18.3358
" />
<path d="M45.2770 18.3358
L45.3389 18.2739
" />
<path d="M45.3389 18.2739
L45.4318 18.2429
" />
<path d="M45.4318 18.2429
L45.4937 18.2429
" />
<path d="M45.4937 18.2429
L45.5865 18.2739
" />
<path d="M45.5865 18.2739
L45.6175 18.3048
" />
<path d="M45.8651 18.3048
L45.8960 18.2739
" />
<path d="M45.8960 18.2739
L45.9579 18.2429
" />
<path d="M45.9579 18.2429
L46.1127 18.2429
" />
<path d="M46.1127 18.2429
L46.1746 18.2739
" />
<path d="M46.1746 18.2739
L46.2056 18.3048
" />
<path d="M46.2056 18.3048
L46.2365 18.3667
" />
<path d="M46.2365 18.3667
L46.2365 18.4286
" />
<path d="M46.2365 18.4286
L46.2056 18.5215
" />
<path d="M46.2056 18.5215
L45.8341 18.8929
" />
<path d="M45.8341 18.8929
L46.2365 18.8929
" />
<path d="M46.7937 18.4596
L46.7937 18.8929
" />
<path d="M46.6389 18.2119
L46.4841 18.6762
" />
<path d="M46.4841 18.6762
L46.8865 18.6762
" />
</g><text x="81.0353" y="33.8100"
textLength="1.5890" font-size="0.8667" lengthAdjust="spacingAndGlyphs"
text-anchor="middle" opacity="0" stroke-opacity="0">C7</text>
<g class="stroked-text"><desc>C7</desc>
<path d="M80.9270 33.7160
L80.8960 33.7469
" />
<path d="M80.8960 33.7469
L80.8032 33.7779
" />
<path d="M80.8032 33.7779
L80.7413 33.7779
" />
<path d="M80.7413 33.7779
L80.6484 33.7469
" />
<path d="M80.6484 33.7469
L80.5865 33.6850
" />
<path d="M80.5865 33.6850
L80.5556 33.6231
" />
<path d="M80.5556 33.6231
L80.5246 33.4993
" />
<path d="M80.5246 33.4993
L80.5246 33.4065
" />
<path d="M80.5246 33.4065
L80.5556 33.2827
" />
<path d="M80.5556 33.2827
L80.5865 33.2208
" />
<path d="M80.5865 33.2208
L80.6484 33.1589
" />
<path d="M80.6484 33.1589
L80.7413 33.1279
" />
<path d="M80.7413 33.1279
L80.8032 33.1279
" />
<path d="M80.8032 33.1279
L80.8960 33.1589
" />
<path d="M80.8960 33.1589
L80.9270 33.1898
" />
<path d="M81.1437 33.1279
L81.5770 33.1279
" />
<path d="M81.5770 33.1279
L81.2984 33.7779
" />
</g><text x="59.8853" y="33.8100"
textLength="2.2081" font-size="0.8667" lengthAdjust="spacingAndGlyphs"
text-anchor="middle" opacity="0" stroke-opacity="0">C12</text>
<g class="stroked-text"><desc>C12</desc>
<path d="M59.4675 33.7160
L59.4365 33.7469
" />
<path d="M59.4365 33.7469
L59.3437 33.7779
" />
<path d="M59.3437 33.7779
L59.2818 33.7779
" />
<path d="M59.2818 33.7779
L59.1889 33.7469
" />
<path d="M59.1889 33.7469
L59.1270 33.6850
" />
<path d="M59.1270 33.6850
L59.0960 33.6231
" />
<path d="M59.0960 33.6231
L59.0651 33.4993
" />
<path d="M59.0651 33.4993
L59.0651 33.4065
" />
<path d="M59.0651 33.4065
L59.0960 33.2827
" />
<path d="M59.0960 33.2827
L59.1270 33.2208
" />
<path d="M59.1270 33.2208
L59.1889 33.1589
" />
<path d="M59.1889 33.1589
L59.2818 33.1279
" />
<path d="M59.2818 33.1279
L59.3437 33.1279
" />
<path d="M59.3437 33.1279
L59.4365 33.1589
" />
<path d="M59.4365 33.1589
L59.4675 33.1898
" />
<path d="M60.0865 33.7779
L59.7151 33.7779
" />
<path d="M59.9008 33.7779
L59.9008 33.1279
" />
<path d="M59.9008 33.1279
L59.8389 33.2208
" />
<path d="M59.8389 33.2208
L59.7770 33.2827
" />
<path d="M59.7770 33.2827
L59.7151 33.3136
" />
<path d="M60.3341 33.1898
L60.3651 33.1589
" />
<path d="M60.3651 33.1589
L60.4270 33.1279
" />
<path d="M60.4270 33.1279
L60.5818 33.1279
" />
<path d="M60.5818 33.1279
L60.6437 33.1589
" />
<path d="M60.6437 33.1589
L60.6746 33.1898
" />
<path d="M60.6746 33.1898
L60.7056 33.2517
" />
<path d="M60.7056 33.2517
L60.7056 33.3136
" />
<path d="M60.7056 33.3136
L60.6746 33.4065
" />
<path d="M60.6746 33.4065
L60.3032 33.7779
" />
<path d="M60.3032 33.7779
L60.7056 33.7779
" />
</g><g transform="rotate(90.000000 43.6553 46.0700)">
<text x="43.6553" y="46.3950"
textLength="2.2081" font-size="0.8667" lengthAdjust="spacingAndGlyphs"
text-anchor="middle" opacity="0" stroke-opacity="0">C16</text>
</g>
<g class="stroked-text"><desc>C16</desc>
<path d="M43.4243 45.6521
L43.3934 45.6212
" />
<path d="M43.3934 45.6212
L43.3624 45.5283
" />
<path d="M43.3624 45.5283
L43.3624 45.4664
" />
<path d="M43.3624 45.4664
L43.3934 45.3736
" />
<path d="M43.3934 45.3736
L43.4553 45.3117
" />
<path d="M43.4553 45.3117
L43.5172 45.2807
" />
<path d="M43.5172 45.2807
L43.6410 45.2498
" />
<path d="M43.6410 45.2498
L43.7338 45.2498
" />
<path d="M43.7338 45.2498
L43.8577 45.2807
" />
<path d="M43.8577 45.2807
L43.9196 45.3117
" />
<path d="M43.9196 45.3117
L43.9815 45.3736
" />
<path d="M43.9815 45.3736
L44.0124 45.4664
" />
<path d="M44.0124 45.4664
L44.0124 45.5283
" />
<path d="M44.0124 45.5283
L43.9815 45.6212
" />
<path d="M43.9815 45.6212
L43.9505 45.6521
" />
<path d="M43.3624 46.2712
L43.3624 45.8998
" />
<path d="M43.3624 46.0855
L44.0124 46.0855
" />
<path d="M44.0124 46.0855
L43.9196 46.0236
" />
<path d="M43.9196 46.0236
L43.8577 45.9617
" />
<path d="M43.8577 45.9617
L43.8267 45.8998
" />
<path d="M44.0124 46.8283
L44.0124 46.7045
" />
<path d="M44.0124 46.7045
L43.9815 46.6426
" />
<path d="M43.9815 46.6426
L43.9505 46.6117
" />
<path d="M43.9505 46.6117
L43.8577 46.5498
" />
<path d="M43.8577 46.5498
L43.7338 46.5188
" />
<path d="M43.7338 46.5188
L43.4862 46.5188
" />
<path d="M43.4862 46.5188
L43.4243 46.5498
" />
<path d="M43.4243 46.5498
L43.3934 46.5807
" />
<path d="M43.3934 46.5807
L43.3624 46.6426
" />
<path d="M43.3624 46.6426
L43.3624 46.7664
" />
<path d="M43.3624 46.7664
L43.3934 46.8283
" />
<path d="M43.3934 46.8283
L43.4243 46.8593
" />
<path d="M43.4243 46.8593
L43.4862 46.8902
" />
<path d="M43.4862 46.8902
L43.6410 46.8902
" />
<path d="M43.6410 46.8902
L43.7029 46.8593
" />
<path d="M43.7029 46.8593
L43.7338 46.8283
" />
<path d="M43.7338 46.8283
L43.7648 46.7664
" />
<path d="M43.7648 46.7664
L43.7648 46.6426
" />
<path d="M43.7648 46.6426
L43.7338 46.5807
" />
<path d="M43.7338 46.5807
L43.7029 46.5498
" />
<path d="M43.7029 46.5498
L43.6410 46.5188
" />
</g><text x="74.1453" y="23.7100"
textLength="1.5890" font-size="0.8667" lengthAdjust="spacingAndGlyphs"
text-anchor="middle" opacity="0" stroke-opacity="0">C1</text>
<g class="stroked-text"><desc>C1</desc>
<path d="M74.0370 23.6160
L74.0060 23.6470
" />
<path d="M74.0060 23.6470
L73.9132 23.6779
" />
<path d="M73.9132 23.6779
L73.8513 23.6779
" />
<path d="M73.8513 23.6779
L73.7584 23.6470
" />
<path d="M73.7584 23.6470
L73.6965 23.5850
" />
<path d="M73.6965 23.5850
L73.6656 23.5231
" />
<path d="M73.6656 23.5231
L73.6346 23.3993
" />
<path d="M73.6346 23.3993
L73.6346 23.3065
" />
<path d="M73.6346 23.3065
L73.6656 23.1827
" />
<path d="M73.6656 23.1827
L73.6965 23.1208
" />
<path d="M73.6965 23.1208
L73.7584 23.0589
" />
<path d="M73.7584 23.0589
L73.8513 23.0279
" />
<path d="M73.8513 23.0279
L73.9132 23.0279
" />
<path d="M73.9132 23.0279
L74.0060 23.0589
" />
<path d="M74.0060 23.0589
L74.0370 23.0898
" />
<path d="M74.6560 23.6779
L74.2846 23.6779
" />
<path d="M74.4703 23.6779
L74.4703 23.0279
" />
<path d="M74.4703 23.0279
L74.4084 23.1208
" />
<path d="M74.4084 23.1208
L74.3465 23.1827
" />
<path d="M74.3465 23.1827
L74.2846 23.2136
" />
</g><g transform="rotate(90.000000 67.0353 52.5810)">
<text x="67.0353" y="53.0810"
textLength="2.2500" font-size="1.3333" lengthAdjust="spacingAndGlyphs"
text-anchor="middle" opacity="0" stroke-opacity="0">U4</text>
</g>
<g class="stroked-text"><desc>U4</desc>
<path d="M67.5805 51.8191
L66.7710 51.8191
" />
<path d="M66.7710 51.8191
L66.6757 51.8667
" />
<path d="M66.6757 51.8667
L66.6281 51.9143
" />
<path d="M66.6281 51.9143
L66.5805 52.0096
" />
<path d="M66.5805 52.0096
L66.5805 52.2000
" />
<path d="M66.5805 52.2000
L66.6281 52.2953
" />
<path d="M66.6281 52.2953
L66.6757 52.3429
" />
<path d="M66.6757 52.3429
L66.7710 52.3905
" />
<path d="M66.7710 52.3905
L67.5805 52.3905
" />
<path d="M67.2472 53.2953
L66.5805 53.2953
" />
<path d="M67.6281 53.0572
L66.9138 52.8191
" />
<path d="M66.9138 52.8191
L66.9138 53.4381
" />
</g><text x="59.8853" y="36.8100"
textLength="2.2081" font-size="0.8667" lengthAdjust="spacingAndGlyphs"
text-anchor="middle" opacity="0" stroke-opacity="0">C10</text>
<g class="stroked-text"><desc>C10</desc>
<path d="M59.4675 36.7160
L59.4365 36.7469
" />
<path d="M59.4365 36.7469
L59.3437 36.7779
" />
<path d="M59.3437 36.7779
L59.2818 36.7779
" />
<path d="M59.2818 36.7779
L59.1889 36.7469
" />
<path d="M59.1889 36.7469
L59.1270 36.6850
" />
<path d="M59.1270 36.6850
L59.0960 36.6231
" />
<path d="M59.0960 36.6231
L59.0651 36.4993
" />
<path d="M59.0651 36.4993
L59.0651 36.4065
" />
<path d="M59.0651 36.4065
L59.0960 36.2827
" />
<path d="M59.0960 36.2827
L59.1270 36.2208
" />
<path d="M59.1270 36.2208
L59.1889 36.1589
" />
<path d="M59.1889 36.1589
L59.2818 36.1279
" />
<path d="M59.2818 36.1279
L59.3437 36.1279
" />
<path d="M59.3437 36.1279
L59.4365 36.1589
" />
<path d="M59.4365 36.1589
L59.4675 36.1898
" />
<path d="M60.0865 36.7779
L59.7151 36.7779
" />
<path d="M59.9008 36.7779
L59.9008 36.1279
" />
<path d="M59.9008 36.1279
L59.8389 36.2208
" />
<path d="M59.8389 36.2208
L59.7770 36.2827
" />
<path d="M59.7770 36.2827
L59.7151 36.3136
" />
<path d="M60.4889 36.1279
L60.5508 36.1279
" />
<path d="M60.5508 36.1279
L60.6127 36.1589
" />
<path d="M60.6127 36.1589
L60.6437 36.1898
" />
<path d="M60.6437 36.1898
L60.6746 36.2517
" />
<path d="M60.6746 36.2517
L60.7056 36.3755
" />
<path d="M60.7056 36.3755
L60.7056 36.5303
" />
<path d="M60.7056 36.5303
L60.6746 36.6541
" />
<path d="M60.6746 36.6541
L60.6437 36.7160
" />
<path d="M60.6437 36.7160
L60.6127 36.7469
" />
<path d="M60.6127 36.7469
L60.5508 36.7779
" />
<path d="M60.5508 36.7779
L60.4889 36.7779
" />
<path d="M60.4889 36.7779
L60.4270 36.7469
" />
<path d="M60.4270 36.7469
L60.3960 36.7160
" />
<path d="M60.3960 36.7160
L60.3651 36.6541
" />
<path d="M60.3651 36.6541
L60.3341 36.5303
" />
<path d="M60.3341 36.5303
L60.3341 36.3755
" />
<path d="M60.3341 36.3755
L60.3651 36.2517
" />
<path d="M60.3651 36.2517
L60.3960 36.1898
" />
<path d="M60.3960 36.1898
L60.4270 36.1589
" />
<path d="M60.4270 36.1589
L60.4889 36.1279
" />
</g><g transform="rotate(90.000000 88.3393 52.5010)">
<text x="88.3393" y="53.0010"
textLength="2.2500" font-size="1.3333" lengthAdjust="spacingAndGlyphs"
text-anchor="middle" opacity="0" stroke-opacity="0">U2</text>
</g>
<g class="stroked-text"><desc>U2</desc>
<path d="M88.8845 51.7391
L88.0750 51.7391
" />
<path d="M88.0750 51.7391
L87.9797 51.7867
" />
<path d="M87.9797 51.7867
L87.9321 51.8343
" />
<path d="M87.9321 51.8343
L87.8845 51.9296
" />
<path d="M87.8845 51.9296
L87.8845 52.1200
" />
<path d="M87.8845 52.1200
L87.9321 52.2153
" />
<path d="M87.9321 52.2153
L87.9797 52.2629
" />
<path d="M87.9797 52.2629
L88.0750 52.3105
" />
<path d="M88.0750 52.3105
L88.8845 52.3105
" />
<path d="M88.7893 52.7391
L88.8369 52.7867
" />
<path d="M88.8369 52.7867
L88.8845 52.8820
" />
<path d="M88.8845 52.8820
L88.8845 53.1200
" />
<path d="M88.8845 53.1200
L88.8369 53.2153
" />
<path d="M88.8369 53.2153
L88.7893 53.2629
" />
<path d="M88.7893 53.2629
L88.6940 53.3105
" />
<path d="M88.6940 53.3105
L88.5988 53.3105
" />
<path d="M88.5988 53.3105
L88.4559 53.2629
" />
<path d="M88.4559 53.2629
L87.8845 52.6915
" />
<path d="M87.8845 52.6915
L87.8845 53.3105
" />
</g><text x="81.0353" y="36.8100"
textLength="1.5890" font-size="0.8667" lengthAdjust="spacingAndGlyphs"
text-anchor="middle" opacity="0" stroke-opacity="0">C6</text>
<g class="stroked-text"><desc>C6</desc>
<path d="M80.9270 36.7160
L80.8960 36.7469
" />
<path d="M80.8960 36.7469
L80.8032 36.7779
" />
<path d="M80.8032 36.7779
L80.7413 36.7779
" />
<path d="M80.7413 36.7779
L80.6484 36.7469
" />
<path d="M80.6484 36.7469
L80.5865 36.6850
" />
<path d="M80.5865 36.6850
L80.5556 36.6231
" />
<path d="M80.5556 36.6231
L80.5246 36.4993
" />
<path d="M80.5246 36.4993
L80.5246 36.4065
" />
<path d="M80.5246 36.4065
L80.5556 36.2827
" />
<path d="M80.5556 36.2827
L80.5865 36.2208
" />
<path d="M80.5865 36.2208
L80.6484 36.1589
" />
<path d="M80.6484 36.1589
L80.7413 36.1279
" />
<path d="M80.7413 36.1279
L80.8032 36.1279
" />
<path d="M80.8032 36.1279
L80.8960 36.1589
" />
<path d="M80.8960 36.1589
L80.9270 36.1898
" />
<path d="M81.4841 36.1279
L81.3603 36.1279
" />
<path d="M81.3603 36.1279
L81.2984 36.1589
" />
<path d="M81.2984 36.1589
L81.2675 36.1898
" />
<path d="M81.2675 36.1898
L81.2056 36.2827
" />
<path d="M81.2056 36.2827
L81.1746 36.4065
" />
<path d="M81.1746 36.4065
L81.1746 36.6541
" />
<path d="M81.1746 36.6541
L81.2056 36.7160
" />
<path d="M81.2056 36.7160
L81.2365 36.7469
" />
<path d="M81.2365 36.7469
L81.2984 36.7779
" />
<path d="M81.2984 36.7779
L81.4222 36.7779
" />
<path d="M81.4222 36.7779
L81.4841 36.7469
" />
<path d="M81.4841 36.7469
L81.5151 36.7160
" />
<path d="M81.5151 36.7160
L81.5460 36.6541
" />
<path d="M81.5460 36.6541
L81.5460 36.4993
" />
<path d="M81.5460 36.4993
L81.5151 36.4374
" />
<path d="M81.5151 36.4374
L81.4841 36.4065
" />
<path d="M81.4841 36.4065
L81.4222 36.3755
" />
<path d="M81.4222 36.3755
L81.2984 36.3755
" />
<path d="M81.2984 36.3755
L81.2365 36.4065
" />
<path d="M81.2365 36.4065
L81.2056 36.4374
" />
<path d="M81.2056 36.4374
L81.1746 36.4993
" />
</g><text x="90.0353" y="34.8100"
textLength="1.5890" font-size="0.8667" lengthAdjust="spacingAndGlyphs"
text-anchor="middle" opacity="0" stroke-opacity="0">C5</text>
<g class="stroked-text"><desc>C5</desc>
<path d="M89.9270 34.7160
L89.8960 34.7469
" />
<path d="M89.8960 34.7469
L89.8032 34.7779
" />
<path d="M89.8032 34.7779
L89.7413 34.7779
" />
<path d="M89.7413 34.7779
L89.6484 34.7469
" />
<path d="M89.6484 34.7469
L89.5865 34.6850
" />
<path d="M89.5865 34.6850
L89.5556 34.6231
" />
<path d="M89.5556 34.6231
L89.5246 34.4993
" />
<path d="M89.5246 34.4993
L89.5246 34.4065
" />
<path d="M89.5246 34.4065
L89.5556 34.2827
" />
<path d="M89.5556 34.2827
L89.5865 34.2208
" />
<path d="M89.5865 34.2208
L89.6484 34.1589
" />
<path d="M89.6484 34.1589
L89.7413 34.1279
" />
<path d="M89.7413 34.1279
L89.8032 34.1279
" />
<path d="M89.8032 34.1279
L89.8960 34.1589
" />
<path d="M89.8960 34.1589
L89.9270 34.1898
" />
<path d="M90.5151 34.1279
L90.2056 34.1279
" />
<path d="M90.2056 34.1279
L90.1746 34.4374
" />
<path d="M90.1746 34.4374
L90.2056 34.4065
" />
<path d="M90.2056 34.4065
L90.2675 34.3755
" />
<path d="M90.2675 34.3755
L90.4222 34.3755
" />
<path d="M90.4222 34.3755
L90.4841 34.4065
" />
<path d="M90.4841 34.4065
L90.5151 34.4374
" />
<path d="M90.5151 34.4374
L90.5460 34.4993
" />
<path d="M90.5460 34.4993
L90.5460 34.6541
" />
<path d="M90.5460 34.6541
L90.5151 34.7160
" />
<path d="M90.5151 34.7160
L90.4841 34.7469
" />
<path d="M90.4841 34.7469
L90.4222 34.7779
" />
<path d="M90.4222 34.7779
L90.2675 34.7779
" />
<path d="M90.2675 34.7779
L90.2056 34.7469
" />
<path d="M90.2056 34.7469
L90.1746 34.7160
" />
</g><text x="70.0353" y="34.8100"
textLength="2.2081" font-size="0.8667" lengthAdjust="spacingAndGlyphs"
text-anchor="middle" opacity="0" stroke-opacity="0">C11</text>
<g class="stroked-text"><desc>C11</desc>
<path d="M69.6175 34.7160
L69.5865 34.7469
" />
<path d="M69.5865 34.7469
L69.4937 34.7779
" />
<path d="M69.4937 34.7779
L69.4318 34.7779
" />
<path d="M69.4318 34.7779
L69.3389 34.7469
" />
<path d="M69.3389 34.7469
L69.2770 34.6850
" />
<path d="M69.2770 34.6850
L69.2460 34.6231
" />
<path d="M69.2460 34.6231
L69.2151 34.4993
" />
<path d="M69.2151 34.4993
L69.2151 34.4065
" />
<path d="M69.2151 34.4065
L69.2460 34.2827
" />
<path d="M69.2460 34.2827
L69.2770 34.2208
" />
<path d="M69.2770 34.2208
L69.3389 34.1589
" />
<path d="M69.3389 34.1589
L69.4318 34.1279
" />
<path d="M69.4318 34.1279
L69.4937 34.1279
" />
<path d="M69.4937 34.1279
L69.5865 34.1589
" />
<path d="M69.5865 34.1589
L69.6175 34.1898
" />
<path d="M70.2365 34.7779
L69.8651 34.7779
" />
<path d="M70.0508 34.7779
L70.0508 34.1279
" />
<path d="M70.0508 34.1279
L69.9889 34.2208
" />
<path d="M69.9889 34.2208
L69.9270 34.2827
" />
<path d="M69.9270 34.2827
L69.8651 34.3136
" />
<path d="M70.8556 34.7779
L70.4841 34.7779
" />
<path d="M70.6698 34.7779
L70.6698 34.1279
" />
<path d="M70.6698 34.1279
L70.6079 34.2208
" />
<path d="M70.6079 34.2208
L70.5460 34.2827
" />
<path d="M70.5460 34.2827
L70.4841 34.3136
" />
</g><text x="27.1853" y="49.1100"
textLength="2.2081" font-size="0.8667" lengthAdjust="spacingAndGlyphs"
text-anchor="middle" opacity="0" stroke-opacity="0">C22</text>
<g class="stroked-text"><desc>C22</desc>
<path d="M26.7675 49.0160
L26.7365 49.0469
" />
<path d="M26.7365 49.0469
L26.6437 49.0779
" />
<path d="M26.6437 49.0779
L26.5818 49.0779
" />
<path d="M26.5818 49.0779
L26.4889 49.0469
" />
<path d="M26.4889 49.0469
L26.4270 48.9850
" />
<path d="M26.4270 48.9850
L26.3960 48.9231
" />
<path d="M26.3960 48.9231
L26.3651 48.7993
" />
<path d="M26.3651 48.7993
L26.3651 48.7065
" />
<path d="M26.3651 48.7065
L26.3960 48.5827
" />
<path d="M26.3960 48.5827
L26.4270 48.5208
" />
<path d="M26.4270 48.5208
L26.4889 48.4589
" />
<path d="M26.4889 48.4589
L26.5818 48.4279
" />
<path d="M26.5818 48.4279
L26.6437 48.4279
" />
<path d="M26.6437 48.4279
L26.7365 48.4589
" />
<path d="M26.7365 48.4589
L26.7675 48.4898
" />
<path d="M27.0151 48.4898
L27.0460 48.4589
" />
<path d="M27.0460 48.4589
L27.1079 48.4279
" />
<path d="M27.1079 48.4279
L27.2627 48.4279
" />
<path d="M27.2627 48.4279
L27.3246 48.4589
" />
<path d="M27.3246 48.4589
L27.3556 48.4898
" />
<path d="M27.3556 48.4898
L27.3865 48.5517
" />
<path d="M27.3865 48.5517
L27.3865 48.6136
" />
<path d="M27.3865 48.6136
L27.3556 48.7065
" />
<path d="M27.3556 48.7065
L26.9841 49.0779
" />
<path d="M26.9841 49.0779
L27.3865 49.0779
" />
<path d="M27.6341 48.4898
L27.6651 48.4589
" />
<path d="M27.6651 48.4589
L27.7270 48.4279
" />
<path d="M27.7270 48.4279
L27.8818 48.4279
" />
<path d="M27.8818 48.4279
L27.9437 48.4589
" />
<path d="M27.9437 48.4589
L27.9746 48.4898
" />
<path d="M27.9746 48.4898
L28.0056 48.5517
" />
<path d="M28.0056 48.5517
L28.0056 48.6136
" />
<path d="M28.0056 48.6136
L27.9746 48.7065
" />
<path d="M27.9746 48.7065
L27.6032 49.0779
" />
<path d="M27.6032 49.0779
L28.0056 49.0779
" />
</g><g transform="rotate(90.000000 29.1853 46.0000)">
<text x="29.1853" y="46.3250"
textLength="2.2081" font-size="0.8667" lengthAdjust="spacingAndGlyphs"
text-anchor="middle" opacity="0" stroke-opacity="0">C20</text>
</g>
<g class="stroked-text"><desc>C20</desc>
<path d="M28.9543 45.5821
L28.9234 45.5512
" />
<path d="M28.9234 45.5512
L28.8924 45.4583
" />
<path d="M28.8924 45.4583
L28.8924 45.3964
" />
<path d="M28.8924 45.3964
L28.9234 45.3036
" />
<path d="M28.9234 45.3036
L28.9853 45.2417
" />
<path d="M28.9853 45.2417
L29.0472 45.2107
" />
<path d="M29.0472 45.2107
L29.1710 45.1798
" />
<path d="M29.1710 45.1798
L29.2638 45.1798
" />
<path d="M29.2638 45.1798
L29.3877 45.2107
" />
<path d="M29.3877 45.2107
L29.4496 45.2417
" />
<path d="M29.4496 45.2417
L29.5115 45.3036
" />
<path d="M29.5115 45.3036
L29.5424 45.3964
" />
<path d="M29.5424 45.3964
L29.5424 45.4583
" />
<path d="M29.5424 45.4583
L29.5115 45.5512
" />
<path d="M29.5115 45.5512
L29.4805 45.5821
" />
<path d="M29.4805 45.8298
L29.5115 45.8607
" />
<path d="M29.5115 45.8607
L29.5424 45.9226
" />
<path d="M29.5424 45.9226
L29.5424 46.0774
" />
<path d="M29.5424 46.0774
L29.5115 46.1393
" />
<path d="M29.5115 46.1393
L29.4805 46.1702
" />
<path d="M29.4805 46.1702
L29.4186 46.2012
" />
<path d="M29.4186 46.2012
L29.3567 46.2012
" />
<path d="M29.3567 46.2012
L29.2638 46.1702
" />
<path d="M29.2638 46.1702
L28.8924 45.7988
" />
<path d="M28.8924 45.7988
L28.8924 46.2012
" />
<path d="M29.5424 46.6036
L29.5424 46.6655
" />
<path d="M29.5424 46.6655
L29.5115 46.7274
" />
<path d="M29.5115 46.7274
L29.4805 46.7583
" />
<path d="M29.4805 46.7583
L29.4186 46.7893
" />
<path d="M29.4186 46.7893
L29.2948 46.8202
" />
<path d="M29.2948 46.8202
L29.1400 46.8202
" />
<path d="M29.1400 46.8202
L29.0162 46.7893
" />
<path d="M29.0162 46.7893
L28.9543 46.7583
" />
<path d="M28.9543 46.7583
L28.9234 46.7274
" />
<path d="M28.9234 46.7274
L28.8924 46.6655
" />
<path d="M28.8924 46.6655
L28.8924 46.6036
" />
<path d="M28.8924 46.6036
L28.9234 46.5417
" />
<path d="M28.9234 46.5417
L28.9543 46.5107
" />
<path d="M28.9543 46.5107
L29.0162 46.4798
" />
<path d="M29.0162 46.4798
L29.1400 46.4488
" />
<path d="M29.1400 46.4488
L29.2948 46.4488
" />
<path d="M29.2948 46.4488
L29.4186 46.4798
" />
<path d="M29.4186 46.4798
L29.4805 46.5107
" />
<path d="M29.4805 46.5107
L29.5115 46.5417
" />
<path d="M29.5115 46.5417
L29.5424 46.6036
" />
</g><text x="55.3853" y="23.8100"
textLength="1.5890" font-size="0.8667" lengthAdjust="spacingAndGlyphs"
text-anchor="middle" opacity="0" stroke-opacity="0">C2</text>
<g class="stroked-text"><desc>C2</desc>
<path d="M55.2770 23.7160
L55.2460 23.7469
" />
<path d="M55.2460 23.7469
L55.1532 23.7779
" />
<path d="M55.1532 23.7779
L55.0913 23.7779
" />
<path d="M55.0913 23.7779
L54.9984 23.7469
" />
<path d="M54.9984 23.7469
L54.9365 23.6850
" />
<path d="M54.9365 23.6850
L54.9056 23.6231
" />
<path d="M54.9056 23.6231
L54.8746 23.4993
" />
<path d="M54.8746 23.4993
L54.8746 23.4065
" />
<path d="M54.8746 23.4065
L54.9056 23.2827
" />
<path d="M54.9056 23.2827
L54.9365 23.2208
" />
<path d="M54.9365 23.2208
L54.9984 23.1589
" />
<path d="M54.9984 23.1589
L55.0913 23.1279
" />
<path d="M55.0913 23.1279
L55.1532 23.1279
" />
<path d="M55.1532 23.1279
L55.2460 23.1589
" />
<path d="M55.2460 23.1589
L55.2770 23.1898
" />
<path d="M55.5246 23.1898
L55.5556 23.1589
" />
<path d="M55.5556 23.1589
L55.6175 23.1279
" />
<path d="M55.6175 23.1279
L55.7722 23.1279
" />
<path d="M55.7722 23.1279
L55.8341 23.1589
" />
<path d="M55.8341 23.1589
L55.8651 23.1898
" />
<path d="M55.8651 23.1898
L55.8960 23.2517
" />
<path d="M55.8960 23.2517
L55.8960 23.3136
" />
<path d="M55.8960 23.3136
L55.8651 23.4065
" />
<path d="M55.8651 23.4065
L55.4937 23.7779
" />
<path d="M55.4937 23.7779
L55.8960 23.7779
" />
</g><text x="41.6853" y="49.1750"
textLength="2.2081" font-size="0.8667" lengthAdjust="spacingAndGlyphs"
text-anchor="middle" opacity="0" stroke-opacity="0">C17</text>
<g class="stroked-text"><desc>C17</desc>
<path d="M41.2675 49.0810
L41.2365 49.1120
" />
<path d="M41.2365 49.1120
L41.1437 49.1429
" />
<path d="M41.1437 49.1429
L41.0818 49.1429
" />
<path d="M41.0818 49.1429
L40.9889 49.1120
" />
<path d="M40.9889 49.1120
L40.9270 49.0500
" />
<path d="M40.9270 49.0500
L40.8960 48.9881
" />
<path d="M40.8960 48.9881
L40.8651 48.8643
" />
<path d="M40.8651 48.8643
L40.8651 48.7715
" />
<path d="M40.8651 48.7715
L40.8960 48.6477
" />
<path d="M40.8960 48.6477
L40.9270 48.5858
" />
<path d="M40.9270 48.5858
L40.9889 48.5239
" />
<path d="M40.9889 48.5239
L41.0818 48.4929
" />
<path d="M41.0818 48.4929
L41.1437 48.4929
" />
<path d="M41.1437 48.4929
L41.2365 48.5239
" />
<path d="M41.2365 48.5239
L41.2675 48.5548
" />
<path d="M41.8865 49.1429
L41.5151 49.1429
" />
<path d="M41.7008 49.1429
L41.7008 48.4929
" />
<path d="M41.7008 48.4929
L41.6389 48.5858
" />
<path d="M41.6389 48.5858
L41.5770 48.6477
" />
<path d="M41.5770 48.6477
L41.5151 48.6786
" />
<path d="M42.1032 48.4929
L42.5365 48.4929
" />
<path d="M42.5365 48.4929
L42.2579 49.1429
" />
</g><text x="6.5353" y="37.6750"
textLength="2.2081" font-size="0.8667" lengthAdjust="spacingAndGlyphs"
text-anchor="middle" opacity="0" stroke-opacity="0">C26</text>
<g class="stroked-text"><desc>C26</desc>
<path d="M6.1175 37.5810
L6.0865 37.6120
" />
<path d="M6.0865 37.6120
L5.9937 37.6429
" />
<path d="M5.9937 37.6429
L5.9318 37.6429
" />
<path d="M5.9318 37.6429
L5.8389 37.6120
" />
<path d="M5.8389 37.6120
L5.7770 37.5500
" />
<path d="M5.7770 37.5500
L5.7460 37.4881
" />
<path d="M5.7460 37.4881
L5.7151 37.3643
" />
<path d="M5.7151 37.3643
L5.7151 37.2715
" />
<path d="M5.7151 37.2715
L5.7460 37.1477
" />
<path d="M5.7460 37.1477
L5.7770 37.0858
" />
<path d="M5.7770 37.0858
L5.8389 37.0239
" />
<path d="M5.8389 37.0239
L5.9318 36.9929
" />
<path d="M5.9318 36.9929
L5.9937 36.9929
" />
<path d="M5.9937 36.9929
L6.0865 37.0239
" />
<path d="M6.0865 37.0239
L6.1175 37.0548
" />
<path d="M6.3651 37.0548
L6.3960 37.0239
" />
<path d="M6.3960 37.0239
L6.4579 36.9929
" />
<path d="M6.4579 36.9929
L6.6127 36.9929
" />
<path d="M6.6127 36.9929
L6.6746 37.0239
" />
<path d="M6.6746 37.0239
L6.7056 37.0548
" />
<path d="M6.7056 37.0548
L6.7365 37.1167
" />
<path d="M6.7365 37.1167
L6.7365 37.1786
" />
<path d="M6.7365 37.1786
L6.7056 37.2715
" />
<path d="M6.7056 37.2715
L6.3341 37.6429
" />
<path d="M6.3341 37.6429
L6.7365 37.6429
" />
<path d="M7.2937 36.9929
L7.1698 36.9929
" />
<path d="M7.1698 36.9929
L7.1079 37.0239
" />
<path d="M7.1079 37.0239
L7.0770 37.0548
" />
<path d="M7.0770 37.0548
L7.0151 37.1477
" />
<path d="M7.0151 37.1477
L6.9841 37.2715
" />
<path d="M6.9841 37.2715
L6.9841 37.5191
" />
<path d="M6.9841 37.5191
L7.0151 37.5810
" />
<path d="M7.0151 37.5810
L7.0460 37.6120
" />
<path d="M7.0460 37.6120
L7.1079 37.6429
" />
<path d="M7.1079 37.6429
L7.2318 37.6429
" />
<path d="M7.2318 37.6429
L7.2937 37.6120
" />
<path d="M7.2937 37.6120
L7.3246 37.5810
" />
<path d="M7.3246 37.5810
L7.3556 37.5191
" />
<path d="M7.3556 37.5191
L7.3556 37.3643
" />
<path d="M7.3556 37.3643
L7.3246 37.3024
" />
<path d="M7.3246 37.3024
L7.2937 37.2715
" />
<path d="M7.2937 37.2715
L7.2318 37.2405
" />
<path d="M7.2318 37.2405
L7.1079 37.2405
" />
<path d="M7.1079 37.2405
L7.0460 37.2715
" />
<path d="M7.0460 37.2715
L7.0151 37.3024
" />
<path d="M7.0151 37.3024
L6.9841 37.3643
" />
</g><text x="26.8353" y="52.1750"
textLength="2.2081" font-size="0.8667" lengthAdjust="spacingAndGlyphs"
text-anchor="middle" opacity="0" stroke-opacity="0">C19</text>
<g class="stroked-text"><desc>C19</desc>
<path d="M26.4175 52.0810
L26.3865 52.1120
" />
<path d="M26.3865 52.1120
L26.2937 52.1429
" />
<path d="M26.2937 52.1429
L26.2318 52.1429
" />
<path d="M26.2318 52.1429
L26.1389 52.1120
" />
<path d="M26.1389 52.1120
L26.0770 52.0500
" />
<path d="M26.0770 52.0500
L26.0460 51.9881
" />
<path d="M26.0460 51.9881
L26.0151 51.8643
" />
<path d="M26.0151 51.8643
L26.0151 51.7715
" />
<path d="M26.0151 51.7715
L26.0460 51.6477
" />
<path d="M26.0460 51.6477
L26.0770 51.5858
" />
<path d="M26.0770 51.5858
L26.1389 51.5239
" />
<path d="M26.1389 51.5239
L26.2318 51.4929
" />
<path d="M26.2318 51.4929
L26.2937 51.4929
" />
<path d="M26.2937 51.4929
L26.3865 51.5239
" />
<path d="M26.3865 51.5239
L26.4175 51.5548
" />
<path d="M27.0365 52.1429
L26.6651 52.1429
" />
<path d="M26.8508 52.1429
L26.8508 51.4929
" />
<path d="M26.8508 51.4929
L26.7889 51.5858
" />
<path d="M26.7889 51.5858
L26.7270 51.6477
" />
<path d="M26.7270 51.6477
L26.6651 51.6786
" />
<path d="M27.3460 52.1429
L27.4698 52.1429
" />
<path d="M27.4698 52.1429
L27.5318 52.1120
" />
<path d="M27.5318 52.1120
L27.5627 52.0810
" />
<path d="M27.5627 52.0810
L27.6246 51.9881
" />
<path d="M27.6246 51.9881
L27.6556 51.8643
" />
<path d="M27.6556 51.8643
L27.6556 51.6167
" />
<path d="M27.6556 51.6167
L27.6246 51.5548
" />
<path d="M27.6246 51.5548
L27.5937 51.5239
" />
<path d="M27.5937 51.5239
L27.5318 51.4929
" />
<path d="M27.5318 51.4929
L27.4079 51.4929
" />
<path d="M27.4079 51.4929
L27.3460 51.5239
" />
<path d="M27.3460 51.5239
L27.3151 51.5548
" />
<path d="M27.3151 51.5548
L27.2841 51.6167
" />
<path d="M27.2841 51.6167
L27.2841 51.7715
" />
<path d="M27.2841 51.7715
L27.3151 51.8334
" />
<path d="M27.3151 51.8334
L27.3460 51.8643
" />
<path d="M27.3460 51.8643
L27.4079 51.8953
" />
<path d="M27.4079 51.8953
L27.5318 51.8953
" />
<path d="M27.5318 51.8953
L27.5937 51.8643
" />
<path d="M27.5937 51.8643
L27.6246 51.8334
" />
<path d="M27.6246 51.8334
L27.6556 51.7715
" />
</g><text x="41.6853" y="52.1750"
textLength="2.2081" font-size="0.8667" lengthAdjust="spacingAndGlyphs"
text-anchor="middle" opacity="0" stroke-opacity="0">C15</text>
<g class="stroked-text"><desc>C15</desc>
<path d="M41.2675 52.0810
L41.2365 52.1120
" />
<path d="M41.2365 52.1120
L41.1437 52.1429
" />
<path d="M41.1437 52.1429
L41.0818 52.1429
" />
<path d="M41.0818 52.1429
L40.9889 52.1120
" />
<path d="M40.9889 52.1120
L40.9270 52.0500
" />
<path d="M40.9270 52.0500
L40.8960 51.9881
" />
<path d="M40.8960 51.9881
L40.8651 51.8643
" />
<path d="M40.8651 51.8643
L40.8651 51.7715
" />
<path d="M40.8651 51.7715
L40.8960 51.6477
" />
<path d="M40.8960 51.6477
L40.9270 51.5858
" />
<path d="M40.9270 51.5858
L40.9889 51.5239
" />
<path d="M40.9889 51.5239
L41.0818 51.4929
" />
<path d="M41.0818 51.4929
L41.1437 51.4929
" />
<path d="M41.1437 51.4929
L41.2365 51.5239
" />
<path d="M41.2365 51.5239
L41.2675 51.5548
" />
<path d="M41.8865 52.1429
L41.5151 52.1429
" />
<path d="M41.7008 52.1429
L41.7008 51.4929
" />
<path d="M41.7008 51.4929
L41.6389 51.5858
" />
<path d="M41.6389 51.5858
L41.5770 51.6477
" />
<path d="M41.5770 51.6477
L41.5151 51.6786
" />
<path d="M42.4746 51.4929
L42.1651 51.4929
" />
<path d="M42.1651 51.4929
L42.1341 51.8024
" />
<path d="M42.1341 51.8024
L42.1651 51.7715
" />
<path d="M42.1651 51.7715
L42.2270 51.7405
" />
<path d="M42.2270 51.7405
L42.3818 51.7405
" />
<path d="M42.3818 51.7405
L42.4437 51.7715
" />
<path d="M42.4437 51.7715
L42.4746 51.8024
" />
<path d="M42.4746 51.8024
L42.5056 51.8643
" />
<path d="M42.5056 51.8643
L42.5056 52.0191
" />
<path d="M42.5056 52.0191
L42.4746 52.0810
" />
<path d="M42.4746 52.0810
L42.4437 52.1120
" />
<path d="M42.4437 52.1120
L42.3818 52.1429
" />
<path d="M42.3818 52.1429
L42.2270 52.1429
" />
<path d="M42.2270 52.1429
L42.1651 52.1120
" />
<path d="M42.1651 52.1120
L42.1341 52.0810
" />
</g><path d="M43.1853 15.6000
L43.1853 17.1000
" />
<path d="M42.8853 17.1000
L42.8853 15.6000
" />
<path d="M40.6853 28.6000
L40.6853 30.1000
" />
<path d="M40.3853 30.1000
L40.3853 28.6000
" />
<path d="M43.1853 17.8500
L43.1853 19.3500
" />
<path d="M42.8853 19.3500
L42.8853 17.8500
" />
<path d="M80.0353 31.2350
L80.0353 32.7350
" />
<path d="M79.7353 32.7350
L79.7353 31.2350
" />
<path d="M59.5353 31.2350
L59.5353 32.7350
" />
<path d="M59.2353 32.7350
L59.2353 31.2350
" />
<path d="M44.4053 49.2200
L42.9053 49.2200
" />
<path d="M42.9053 48.9200
L44.4053 48.9200
" />
<path d="M73.1853 21.2350
L73.1853 22.7350
" />
<path d="M72.8853 22.7350
L72.8853 21.2350
" />
</g>
<g style="fill:none; 
stroke:#000000; stroke-width:0.1000; stroke-opacity:1; 
stroke-linecap:round; stroke-linejoin:round;">
<path d="M68.2053 44.9060
L50.4253 44.9060
" />
<path d="M68.2053 47.9540
L68.2053 44.9060
" />
<path d="M68.2053 47.9540
L68.2053 57.0980
" />
<path d="M68.2053 58.1140
L68.2053 57.0980
" />
<path d="M50.4253 44.9060
L50.4253 47.9540
" />
<path d="M50.4253 47.9540
L68.2053 47.9540
" />
<path d="M50.4253 57.0980
L50.4253 47.9540
" />
<path d="M50.4253 57.0980
L50.4253 58.1140
" />
<path d="M50.4253 58.1140
L68.2053 58.1140
" />
</g>
<g style="fill:none; 
stroke:#000000; stroke-width:0.1200; stroke-opacity:1; 
stroke-linecap:round; stroke-linejoin:round;">
<path d="M73.3502 65.5200
L73.3502 68.1800
" />
<path d="M73.3502 65.5200
L12.3302 65.5200
" />
<path d="M73.3502 68.1800
L12.3302 68.1800
" />
<path d="M12.3302 65.5200
L12.3302 68.1800
" />
<path d="M11.0602 65.5200
L9.7302 65.5200
" />
<path d="M9.7302 65.5200
L9.7302 66.8500
" />
</g>
<g style="fill:none; 
stroke:#000000; stroke-width:0.1500; stroke-opacity:1; 
stroke-linecap:round; stroke-linejoin:round;">
<path d="M59.5353 34.2350
L59.5353 35.7350
" />
<path d="M59.2353 35.7350
L59.2353 34.2350
" />
</g>
<g style="fill:none; 
stroke:#000000; stroke-width:0.1000; stroke-opacity:1; 
stroke-linecap:round; stroke-linejoin:round;">
<path d="M89.3553 44.8810
L71.5753 44.8810
" />
<path d="M89.3553 47.9290
L89.3553 44.8810
" />
<path d="M89.3553 47.9290
L89.3553 57.0730
" />
<path d="M89.3553 58.0890
L89.3553 57.0730
" />
<path d="M71.5753 44.8810
L71.5753 47.9290
" />
<path d="M71.5753 47.9290
L89.3553 47.9290
" />
<path d="M71.5753 57.0730
L71.5753 47.9290
" />
<path d="M71.5753 57.0730
L71.5753 58.0890
" />
<path d="M71.5753 58.0890
L89.3553 58.0890
" />
</g>
<g style="fill:none; 
stroke:#000000; stroke-width:0.1500; stroke-opacity:1; 
stroke-linecap:round; stroke-linejoin:round;">
<path d="M80.0353 34.2350
L80.0353 35.7350
" />
<path d="M79.7353 35.7350
L79.7353 34.2350
" />
<path d="M89.0353 32.2350
L89.0353 33.7350
" />
<path d="M88.7353 33.7350
L88.7353 32.2350
" />
<path d="M69.0353 32.2350
L69.0353 33.7350
" />
<path d="M68.7353 33.7350
L68.7353 32.2350
" />
<path d="M26.3353 46.6000
L26.3353 48.1000
" />
<path d="M26.0353 48.1000
L26.0353 46.6000
" />
<path d="M29.9353 49.1500
L28.4353 49.1500
" />
<path d="M28.4353 48.8500
L29.9353 48.8500
" />
<path d="M54.5353 21.2350
L54.5353 22.7350
" />
<path d="M54.2353 22.7350
L54.2353 21.2350
" />
</g>
<g style="fill:none; 
stroke:#000000; stroke-width:0.1200; stroke-opacity:1; 
stroke-linecap:round; stroke-linejoin:round;">
<path d="M73.3502 7.1000
L73.3502 9.7600
" />
<path d="M73.3502 7.1000
L12.3302 7.1000
" />
<path d="M73.3502 9.7600
L12.3302 9.7600
" />
<path d="M12.3302 7.1000
L12.3302 9.7600
" />
<path d="M11.0602 7.1000
L9.7302 7.1000
" />
<path d="M9.7302 7.1000
L9.7302 8.4300
" />
</g>
<g style="fill:none; 
stroke:#000000; stroke-width:0.1500; stroke-opacity:1; 
stroke-linecap:round; stroke-linejoin:round;">
<path d="M40.8353 46.6000
L40.8353 48.1000
" />
<path d="M40.5353 48.1000
L40.5353 46.6000
" />
<path d="M5.6853 35.1000
L5.6853 36.6000
" />
<path d="M5.3853 36.6000
L5.3853 35.1000
" />
<path d="M26.3353 49.6000
L26.3353 51.1000
" />
<path d="M26.0353 51.1000
L26.0353 49.6000
" />
<path d="M40.8353 49.6000
L40.8353 51.1000
" />
<path d="M40.5353 51.1000
L40.5353 49.6000
" />
</g> 
</svg>
